<svg width="332" height="335" viewBox="0 0 332 335" fill="none" xmlns="http://www.w3.org/2000/svg">
<path d="M56.9513 141.081C57.0218 91.6761 81.234 57.8839 122.355 40.3376C125.065 39.1816 130.788 30.882 133.755 28.8869C150.835 17.3998 182.439 -9.49638 203.894 3.43974C213.956 9.74876 215.897 26.9441 218.043 37.8063C243.093 44.4991 262.367 53.7223 277.124 76.1387C297.634 107.295 299.631 143.358 292.483 179.106C298.468 185.659 302.842 190.936 308.26 197.979C313.182 200.645 329.82 195.843 331.61 201.971C333.387 208.059 328.699 227.538 325.504 232.76C338.227 246.372 329.58 269.704 311.646 273.52C310.158 278.425 308.067 287.339 303.216 289.122C293.181 292.814 272.44 290.52 261.322 290.32C264.96 295.466 270.088 302.887 268.216 309.402C257.858 345.458 209.97 318.49 191.211 309.469C181.647 316.472 164.37 328.691 153.605 332.771C146.821 334.765 143.434 334.358 136.69 332.795C110.935 322.098 120.245 301.697 130.926 282.405C103.376 270.477 83.9097 243.247 72.0517 216.662C60.1241 215.335 50.0653 212.821 38.9706 208.299C11.9783 197.298 -9.22644 165.486 4.08693 136.396C8.057 127.567 15.3966 120.693 24.4691 117.31C26.7941 116.455 29.3253 115.678 31.7965 115.419C50.3011 113.481 52.1169 127.677 56.9513 141.081Z" fill="#49E2EA"/>
<path d="M64.1412 146.73C63.9296 145.352 63.8017 143.963 63.7556 142.571C62.852 116.403 71.2231 89.5408 89.1741 70.0908C108.883 48.7372 136.544 41.1557 164.752 40.0711C195.741 38.8786 236.351 43.5181 259.771 66.0346C279.833 85.3244 289.225 114.155 289.754 141.501C277.529 135.584 276.261 133.26 262.577 136.599C253.229 162.804 233.087 179.708 204.392 169.384C203.299 168.987 202.21 168.579 201.125 168.162C191.911 205.153 145.087 203.288 137.033 166.723C108.744 176.298 84.7644 162.041 79.1492 133.647C69.7615 135.715 63.9331 135.144 64.1412 146.73Z" fill="#13BFD7"/>
<path d="M81.4986 131.682C80.5289 116.998 82.1105 104.092 92.1858 92.3915C98.9352 84.5593 108.504 79.7075 118.812 78.891C129.033 78.2155 139.109 81.605 146.842 88.3205C164.528 103.767 164.388 129.798 153.443 149.131C142.623 149.66 138.059 152.391 137.222 163.748C109.969 172.434 87.1138 160.077 81.4986 131.682Z" fill="#F8FAFA"/>
<path d="M133.25 102.216C155.868 101.42 159.82 138.496 136.798 146.086C111.69 146.003 109.641 107.911 133.25 102.216Z" fill="#0F4A5C"/>
<path d="M138.626 110.402C140.7 109.612 143.023 110.641 143.831 112.708C144.639 114.775 143.629 117.107 141.568 117.931C139.483 118.766 137.117 117.742 136.3 115.65C135.482 113.559 136.526 111.202 138.626 110.402Z" fill="#F8FAFA"/>
<path d="M210.15 80.0139C219.674 79.4786 226.631 79.7719 235.221 84.6908C267.576 103.22 264.154 158.184 226.181 167.896C217.245 169.48 209.765 168.096 201.455 164.779C198.64 153.187 196.442 149.662 184.075 149.156C170.643 121.408 176.348 87.1837 210.15 80.0139Z" fill="#F8FAFA"/>
<path d="M204.389 102.145C228.543 100.782 231.278 138.523 209.211 146.811C185.329 148.654 180.734 109.216 204.389 102.145Z" fill="#0F4A5C"/>
<path d="M209.901 110.458C211.305 109.745 212.987 109.862 214.277 110.764C215.568 111.665 216.257 113.204 216.072 114.766C215.886 116.33 214.854 117.663 213.388 118.237C211.267 119.065 208.869 118.085 207.938 116.008C207.007 113.93 207.871 111.488 209.901 110.458Z" fill="#F8FAFA"/>
<path d="M162.686 181.659C161.387 181.136 160.132 180.503 158.939 179.769C154.893 177.264 144.739 166.034 148.902 161.254C151.342 160.886 159.909 163.618 163.287 163.888C170.484 164.46 182.519 159.122 188.484 161.6C192.353 165.655 188.407 172.309 185.517 175.949C177.457 183.056 173.093 185.107 162.686 181.659Z" fill="#0F4A5C"/>
<path d="M162.686 181.659C166.499 173.262 177.9 170.86 185.517 175.949C177.458 183.057 173.093 185.107 162.686 181.659Z" fill="#EF7377"/>
<path d="M212.713 56.7976C218.925 57.3181 235.166 60.8634 233.182 69.8281C228.859 72.3167 222.167 65.67 217.976 64.8004C213.461 63.8638 209.78 67.4814 205.839 63.5487C205.541 61.2725 205.631 61.0636 207.029 58.5733L212.713 56.7976Z" fill="#0A8BA4"/>
<path d="M120.629 56.6304C124.606 56.6878 129.741 56.4528 131.207 60.9991C128.684 66.596 120.787 62.2316 112.891 67.335L112.286 67.7302C110.118 69.3048 108.675 70.553 105.998 70.8533C104.049 70.3093 104.75 70.8664 103.741 69.2413C103.794 61.4744 114.373 57.6636 120.629 56.6304Z" fill="#0A8BA4"/>
<path d="M148.499 52.4614C145.263 52.5162 143.997 52.2607 142.564 50.6857C142.114 50.1908 141.961 49.0757 142.564 48.4373C143.763 47.1674 144.514 46.5511 146.229 46.0184C147.881 45.4979 149.676 45.6937 151.177 46.5589C152.759 47.4859 153.753 48.9344 154.183 50.6857C154.738 52.9441 150.825 52.422 148.499 52.4614Z" fill="#49E2EA"/>
<path d="M56.9513 141.081C57.0218 91.6761 81.234 57.8839 122.355 40.3376C125.065 39.1816 130.788 30.882 133.755 28.8869C150.835 17.3998 182.439 -9.49638 203.894 3.43974C213.956 9.74876 215.897 26.9441 218.043 37.8063C243.093 44.4991 262.367 53.7223 277.124 76.1387C297.634 107.295 299.631 143.358 292.483 179.106C298.468 185.659 302.842 190.936 308.26 197.979C305.772 198.696 303.001 198.334 300.355 198.206C296.373 192.232 286.1 184.139 285.808 179.589C288.325 167.493 289.564 153.841 289.754 141.501C289.225 114.155 279.833 85.3245 259.771 66.0347C236.351 43.5181 195.741 38.8787 164.752 40.0712C136.544 41.1558 108.883 48.7373 89.1741 70.0909C71.223 89.5409 62.852 116.403 63.7555 142.571C63.8017 143.963 63.9296 145.353 64.1411 146.73C65.2065 214.715 105.105 288.812 181.519 287.59C196.259 287.354 211.805 283.964 224.874 276.964L225.079 284.699C227.208 287.817 227.975 288.738 231.91 289.423C238.882 289.918 244.997 290.048 251.997 290.116C253.588 290.122 260.199 290.045 261.322 290.32C264.96 295.466 270.088 302.887 268.216 309.402C257.858 345.458 209.97 318.49 191.211 309.469C181.647 316.472 164.37 328.691 153.605 332.771C146.821 334.765 143.434 334.358 136.69 332.795C110.935 322.098 120.245 301.697 130.926 282.405C103.376 270.477 83.9097 243.247 72.0517 216.662C60.1241 215.335 50.0653 212.821 38.9706 208.299C11.9783 197.298 -9.22644 165.486 4.08693 136.396C8.057 127.567 15.3966 120.693 24.4691 117.31C26.7941 116.455 29.3253 115.678 31.7965 115.419C50.3011 113.481 52.1169 127.677 56.9513 141.081Z" fill="#0F4A5C"/>
<path d="M231.91 289.423C238.882 289.918 244.997 290.048 251.997 290.116C263.303 304.097 269.88 312.85 247.752 321.332C246.94 320.565 243.785 314.794 243.254 313.602C240.25 306.851 232.169 296.533 231.91 289.423Z" fill="#046C88"/>
<path d="M31.6058 121.756C50.3577 121.237 46.466 137.698 54.2442 150.807C58.6913 158.301 59.4555 170.115 61.0406 178.793C62.9016 189.343 65.62 199.725 69.1696 209.834C61.6708 208.399 56.7789 207.484 49.301 205.467C30.3193 198.908 13.2761 186.224 7.99693 165.936C4.62398 152.974 7.09425 138.472 17.3219 129.205C21.708 125.23 25.9428 123.211 31.6058 121.756Z" fill="#0A8BA4"/>
<path d="M224.654 285.202C226.595 296.663 242.596 316.403 242.078 321.4L240.68 321.922C222.705 318.19 207.396 309.884 191.181 301.79C179.521 309.777 161.647 324.216 148.617 327.578C149.186 323.604 160.443 296.814 162.734 292.802C176.893 295.417 194.265 294.352 208.036 290.382C213.725 288.742 218.923 286.714 224.654 285.202Z" fill="#046C88"/>
<path d="M190.08 6.32958C207.097 5.6945 208.859 23.7044 211.231 36.4972C201.916 35.3988 188.179 33.4699 179.021 33.5064C174.297 33.3245 168.242 33.5047 163.37 33.4681C159.29 33.7327 155.215 34.0757 151.148 34.4961L148.318 35.0071C148.424 32.9363 149.953 27.2088 150.462 24.5766C152.019 23.3353 154.11 22.538 155.956 21.7041C165.329 14.893 174.785 11.0117 185.485 6.89022L190.08 6.32958Z" fill="#0A8BA4"/>
<path d="M185.485 6.89024L190.08 6.32959C188.553 9.73144 178.773 30.3102 178.645 32.8449L179.021 33.5064C174.297 33.3245 168.242 33.5047 163.37 33.4681C159.29 33.7328 155.215 34.0757 151.148 34.4961L148.318 35.0071C148.424 32.9363 149.953 27.2088 150.462 24.5766C152.019 23.3354 154.11 22.538 155.956 21.7042C165.329 14.893 174.785 11.0117 185.485 6.89024Z" fill="#0A8BA4"/>
<path d="M185.485 6.89024L190.08 6.32959C188.553 9.73144 178.772 30.3102 178.644 32.8449L179.021 33.5064C174.297 33.3245 168.242 33.5047 163.37 33.4681C166.694 32.7683 170.996 32.9328 174.467 32.9267C177.589 24.2467 181.732 15.3639 185.485 6.89024Z" fill="#046C88"/>
<path d="M150.462 24.5763C152.019 23.3351 154.11 22.5377 155.956 21.7039C154.184 25.8994 152.261 30.0871 151.148 34.4958L148.318 35.0068C148.424 32.936 149.953 27.2085 150.462 24.5763Z" fill="#046C88"/>
<path d="M136.389 285.629C144.295 288.476 150.473 290.335 158.647 292.05C154.747 298.463 146.042 320.545 144.919 328.041C117.02 322.83 127.185 303.182 136.389 285.629Z" fill="#046C88"/>
<path d="M150.463 24.5764C149.953 27.2086 148.424 32.9361 148.318 35.0069C143.485 35.2767 139.06 36.4153 134.344 37.4615C139.316 32.2197 144.553 28.6161 150.463 24.5764Z" fill="#0A8BA4"/>
<path d="M275.075 197.47C278.189 193.359 285.817 184.488 285.808 179.589C286.1 184.139 296.373 192.232 300.355 198.206C303.001 198.334 305.772 198.696 308.26 197.979C313.182 200.645 329.82 195.843 331.61 201.971C333.387 208.059 328.699 227.538 325.504 232.76C338.227 246.372 329.58 269.704 311.646 273.52C310.158 278.425 308.067 287.339 303.216 289.122C293.181 292.814 272.44 290.52 261.322 290.32C260.199 290.045 253.588 290.122 251.997 290.116C244.997 290.048 238.882 289.918 231.91 289.423C227.975 288.738 227.208 287.817 225.079 284.699L224.874 276.964C231.4 256.858 236.985 233.794 242.815 213.448C245.554 203.895 246.777 200.911 255.082 196.455C262.274 197.072 267.869 197.407 275.075 197.47Z" fill="#F9F1BD"/>
<path d="M311.646 273.52C279.735 276.791 295.528 216.282 325.504 232.76C338.227 246.372 329.58 269.704 311.646 273.52Z" fill="#0F4A5C"/>
<path d="M316.015 236.741C326.211 238.047 326.586 246.208 323.457 254.351C320.928 260.934 317.144 264.246 310.737 266.971C294.105 265.445 299.554 239.992 316.015 236.741Z" fill="#0A8BA4"/>
<path d="M275.075 197.47C278.189 193.359 285.816 184.488 285.808 179.589C286.099 184.139 296.372 192.232 300.354 198.206L275.075 197.47Z" fill="#0A8BA4"/>
<path d="M272.786 217.591C277.981 214.819 278.923 219.183 281.572 223.905C285.949 222.521 288.403 221.111 293.004 221.111C294.583 221.111 295.6 222.049 295.888 222.432C298.066 225.313 297.955 228.48 297.389 232.296C296.396 238.989 285.185 240.16 284.43 246.2C284.169 248.285 284.606 248.518 282.748 249.005C277.546 250.371 273.615 248.248 268.534 246.695L265.647 245.911C262.874 246.431 262.223 248.971 259.829 250.435C255.456 253.112 251.123 249.824 245.493 248.931C245.493 248.931 245.001 248.92 244.736 248.814C239.745 246.804 255.222 241.2 264.318 235.908C269.478 232.907 259.31 224.782 272.786 217.591Z" fill="#5DCF29"/>
<path d="M261.267 253.816C266.853 254.202 281.422 252.402 283.7 257.281C283.183 262.185 277.023 265.916 272.143 265.771C267.872 264.958 251.57 263.403 249.358 261.922C251.837 258.173 258.003 258.729 261.231 255.993L261.267 253.816Z" fill="#49E2EA"/>
</svg>
