<svg width="382" height="384" viewBox="0 0 382 384" fill="none" xmlns="http://www.w3.org/2000/svg">
<path d="M65.4282 162.081C65.5092 105.322 93.3253 66.4996 140.567 46.3416C143.68 45.0136 150.255 35.4786 153.664 33.1866C173.286 19.9896 209.594 -10.9099 234.242 3.95172C245.802 11.1998 248.032 30.9546 250.498 43.4336C279.276 51.1226 301.419 61.7186 318.372 87.4716C341.935 123.266 344.23 164.696 336.017 205.766C342.893 213.294 347.918 219.356 354.143 227.448C359.797 230.51 378.912 224.994 380.968 232.034C383.01 239.028 377.624 261.406 373.954 267.406C388.57 283.044 378.636 309.849 358.033 314.233C356.323 319.868 353.921 330.108 348.348 332.157C336.819 336.398 312.991 333.763 300.218 333.533C304.398 339.445 310.289 347.971 308.139 355.456C296.239 396.878 241.223 365.896 219.672 355.533C208.684 363.578 188.836 377.616 176.468 382.303C168.674 384.594 164.783 384.126 157.035 382.331C127.447 370.041 138.143 346.604 150.413 324.44C118.763 310.737 96.3992 279.454 82.7762 248.912C69.0732 247.387 57.5172 244.499 44.7712 239.304C13.7612 226.665 -10.5998 190.118 4.69525 156.698C9.25625 146.555 17.6883 138.658 28.1113 134.771C30.7823 133.789 33.6902 132.896 36.5292 132.599C57.7882 130.373 59.8742 146.681 65.4282 162.081Z" fill="#49E2EA"/>
<path d="M73.6882 168.571C73.4452 166.988 73.2982 165.392 73.2452 163.792C72.2072 133.729 81.8243 102.869 102.447 80.5236C125.09 55.9916 156.868 47.2816 189.274 46.0356C224.876 44.6656 271.531 49.9956 298.436 75.8636C321.485 98.0246 332.275 131.147 332.882 162.563C318.838 155.765 317.381 153.096 301.66 156.932C290.921 187.037 267.781 206.457 234.815 194.596C233.559 194.14 232.308 193.672 231.061 193.193C220.476 235.689 166.682 233.547 157.43 191.54C124.93 202.54 97.3812 186.161 90.9302 153.54C80.1452 155.916 73.4492 155.26 73.6882 168.571Z" fill="#13BFD7"/>
<path d="M93.6293 151.283C92.5153 134.413 94.3323 119.586 105.907 106.144C113.661 97.1456 124.654 91.5716 136.496 90.6336C148.239 89.8576 159.814 93.7516 168.699 101.467C189.017 119.213 188.856 149.118 176.282 171.329C163.852 171.937 158.608 175.074 157.647 188.122C126.337 198.1 100.08 183.904 93.6293 151.283Z" fill="#F8FAFA"/>
<path d="M153.084 117.431C179.068 116.517 183.608 159.111 157.16 167.831C128.314 167.736 125.961 123.974 153.084 117.431Z" fill="#0F4A5C"/>
<path d="M159.259 126.835C161.642 125.927 164.311 127.11 165.239 129.484C166.167 131.859 165.007 134.538 162.639 135.485C160.244 136.444 157.526 135.267 156.587 132.864C155.647 130.462 156.847 127.754 159.259 126.835Z" fill="#F8FAFA"/>
<path d="M241.43 91.9237C252.371 91.3087 260.364 91.6457 270.232 97.2967C307.403 118.584 303.472 181.729 259.847 192.887C249.581 194.707 240.987 193.117 231.44 189.306C228.207 175.989 225.681 171.939 211.474 171.357C196.042 139.479 202.596 100.161 241.43 91.9237Z" fill="#F8FAFA"/>
<path d="M234.811 117.349C262.561 115.783 265.703 159.142 240.351 168.664C212.914 170.781 207.636 125.473 234.811 117.349Z" fill="#0F4A5C"/>
<path d="M241.144 126.899C242.756 126.08 244.689 126.215 246.171 127.251C247.654 128.286 248.446 130.054 248.233 131.849C248.019 133.645 246.834 135.177 245.15 135.836C242.713 136.788 239.958 135.662 238.888 133.275C237.819 130.888 238.811 128.083 241.144 126.899Z" fill="#F8FAFA"/>
<path d="M186.901 208.699C185.408 208.098 183.967 207.371 182.596 206.527C177.948 203.649 166.283 190.748 171.065 185.256C173.868 184.834 183.71 187.972 187.591 188.282C195.859 188.94 209.686 182.807 216.539 185.654C220.984 190.312 216.45 197.957 213.13 202.139C203.871 210.304 198.857 212.66 186.901 208.699Z" fill="#0F4A5C"/>
<path d="M186.901 208.699C191.281 199.052 204.379 196.292 213.13 202.139C203.871 210.304 198.857 212.66 186.901 208.699Z" fill="#EF7377"/>
<path d="M244.374 65.2517C251.511 65.8497 270.169 69.9227 267.89 80.2217C262.923 83.0807 255.235 75.4447 250.42 74.4457C245.233 73.3697 241.005 77.5257 236.477 73.0077C236.135 70.3927 236.238 70.1527 237.844 67.2917L244.374 65.2517Z" fill="#0A8BA4"/>
<path d="M138.584 65.0596C143.153 65.1256 149.052 64.8556 150.737 70.0786C147.838 76.5086 138.766 71.4946 129.694 77.3576L128.999 77.8116C126.508 79.6206 124.851 81.0546 121.775 81.3996C119.536 80.7746 120.341 81.4146 119.182 79.5476C119.243 70.6246 131.397 66.2466 138.584 65.0596Z" fill="#0A8BA4"/>
<path d="M170.603 60.2701C166.885 60.3331 165.43 60.0396 163.784 58.2301C163.267 57.6615 163.091 56.3804 163.784 55.6471C165.162 54.1881 166.024 53.4801 167.994 52.8681C169.893 52.2701 171.955 52.4951 173.679 53.4891C175.497 54.5541 176.639 56.2181 177.133 58.2301C177.77 60.8247 173.274 60.2248 170.603 60.2701Z" fill="#49E2EA"/>
<path d="M65.4282 162.081C65.5092 105.322 93.3253 66.4996 140.567 46.3416C143.68 45.0136 150.255 35.4786 153.664 33.1866C173.286 19.9896 209.594 -10.9099 234.242 3.95172C245.802 11.1998 248.032 30.9546 250.498 43.4336C279.276 51.1226 301.419 61.7186 318.372 87.4716C341.935 123.266 344.23 164.696 336.017 205.766C342.893 213.294 347.918 219.356 354.143 227.448C351.284 228.271 348.101 227.856 345.061 227.709C340.486 220.845 328.684 211.548 328.349 206.32C331.241 192.424 332.664 176.74 332.882 162.563C332.275 131.147 321.485 98.0246 298.436 75.8636C271.531 49.9956 224.876 44.6656 189.274 46.0356C156.868 47.2816 125.09 55.9916 102.447 80.5236C81.8243 102.869 72.2072 133.729 73.2452 163.792C73.2982 165.392 73.4452 166.988 73.6882 168.571C74.9122 246.675 120.749 331.801 208.537 330.397C225.471 330.126 243.331 326.231 258.345 318.189L258.581 327.076C261.027 330.658 261.908 331.716 266.428 332.503C274.438 333.071 281.463 333.221 289.505 333.299C291.333 333.306 298.928 333.217 300.218 333.533C304.398 339.445 310.289 347.971 308.139 355.456C296.239 396.878 241.223 365.896 219.672 355.533C208.684 363.578 188.836 377.616 176.468 382.303C168.674 384.594 164.783 384.126 157.035 382.331C127.447 370.041 138.143 346.604 150.413 324.44C118.763 310.737 96.3992 279.454 82.7762 248.912C69.0732 247.387 57.5172 244.499 44.7712 239.304C13.7612 226.665 -10.5998 190.118 4.69525 156.698C9.25625 146.555 17.6883 138.658 28.1113 134.771C30.7823 133.789 33.6902 132.896 36.5292 132.599C57.7882 130.373 59.8742 146.681 65.4282 162.081Z" fill="#0F4A5C"/>
<path d="M266.428 332.503C274.438 333.071 281.463 333.221 289.505 333.299C302.494 349.361 310.05 359.417 284.629 369.161C283.696 368.28 280.071 361.65 279.461 360.281C276.01 352.525 266.726 340.671 266.428 332.503Z" fill="#046C88"/>
<path d="M36.3102 139.878C57.8532 139.282 53.3822 158.193 62.3182 173.253C67.4272 181.863 68.3052 195.435 70.1262 205.405C72.2642 217.526 75.3872 229.453 79.4652 241.067C70.8502 239.418 65.2302 238.367 56.6392 236.049C34.8322 228.514 15.2522 213.942 9.18725 190.634C5.31225 175.743 8.1502 159.083 19.9002 148.436C24.9392 143.87 29.8042 141.55 36.3102 139.878Z" fill="#0A8BA4"/>
<path d="M258.092 327.654C260.322 340.821 278.705 363.499 278.11 369.24L276.504 369.839C255.853 365.552 238.266 356.009 219.637 346.711C206.242 355.886 185.707 372.475 170.738 376.337C171.391 371.771 184.324 340.994 186.956 336.385C203.223 339.389 223.18 338.165 239.001 333.605C245.537 331.721 251.508 329.391 258.092 327.654Z" fill="#046C88"/>
<path d="M218.373 7.27171C237.922 6.54211 239.947 27.2327 242.672 41.9297C231.97 40.6677 216.189 38.4517 205.668 38.4937C200.24 38.2847 193.284 38.4917 187.687 38.4497C183 38.7537 178.318 39.1477 173.646 39.6307L170.394 40.2177C170.516 37.8387 172.273 31.2587 172.858 28.2347C174.646 26.8087 177.048 25.8927 179.169 24.9347C189.937 17.1097 200.801 12.6507 213.094 7.9158L218.373 7.27171Z" fill="#0A8BA4"/>
<path d="M213.094 7.91582L218.373 7.27173C216.618 11.1799 205.382 34.8217 205.235 37.7337L205.668 38.4937C200.24 38.2847 193.284 38.4917 187.687 38.4497C183 38.7537 178.318 39.1477 173.646 39.6307L170.394 40.2177C170.516 37.8387 172.273 31.2587 172.858 28.2347C174.646 26.8087 177.048 25.8927 179.169 24.9347C189.937 17.1097 200.801 12.6507 213.094 7.91582Z" fill="#0A8BA4"/>
<path d="M213.094 7.91582L218.373 7.27173C216.618 11.1799 205.382 34.8217 205.235 37.7337L205.668 38.4937C200.24 38.2847 193.284 38.4917 187.687 38.4497C191.506 37.6457 196.448 37.8347 200.436 37.8277C204.023 27.8557 208.782 17.6507 213.094 7.91582Z" fill="#046C88"/>
<path d="M172.858 28.2346C174.646 26.8086 177.048 25.8926 179.169 24.9346C177.134 29.7546 174.924 34.5656 173.646 39.6306L170.394 40.2176C170.516 37.8386 172.273 31.2586 172.858 28.2346Z" fill="#046C88"/>
<path d="M156.69 328.144C165.773 331.415 172.87 333.551 182.261 335.521C177.78 342.888 167.779 368.257 166.489 376.869C134.438 370.882 146.116 348.31 156.69 328.144Z" fill="#046C88"/>
<path d="M172.858 28.2346C172.273 31.2586 170.516 37.8386 170.394 40.2176C164.842 40.5276 159.758 41.8356 154.34 43.0376C160.052 37.0156 166.069 32.8756 172.858 28.2346Z" fill="#0A8BA4"/>
<path d="M316.019 226.863C319.596 222.14 328.359 211.949 328.349 206.32C328.684 211.548 340.486 220.845 345.061 227.709C348.101 227.856 351.284 228.271 354.143 227.448C359.797 230.51 378.912 224.994 380.968 232.034C383.01 239.028 377.624 261.406 373.954 267.406C388.57 283.044 378.636 309.849 358.033 314.233C356.323 319.868 353.921 330.108 348.348 332.157C336.819 336.398 312.991 333.763 300.218 333.533C298.928 333.217 291.333 333.306 289.505 333.299C281.463 333.221 274.438 333.071 266.428 332.503C261.908 331.716 261.027 330.658 258.581 327.076L258.345 318.189C265.843 295.091 272.259 268.594 278.957 245.219C282.103 234.244 283.508 230.816 293.049 225.697C301.312 226.406 307.74 226.79 316.019 226.863Z" fill="#F9F1BD"/>
<path d="M358.033 314.233C321.372 317.991 339.516 248.475 373.954 267.406C388.57 283.044 378.636 309.849 358.033 314.233Z" fill="#0F4A5C"/>
<path d="M363.052 271.979C374.766 273.479 375.197 282.855 371.602 292.21C368.696 299.772 364.349 303.577 356.988 306.708C337.881 304.955 344.141 275.713 363.052 271.979Z" fill="#0A8BA4"/>
<path d="M316.019 226.863C319.596 222.14 328.359 211.949 328.349 206.32C328.684 211.548 340.486 220.845 345.061 227.709L316.019 226.863Z" fill="#0A8BA4"/>
<path d="M313.389 249.979C319.357 246.794 320.44 251.808 323.483 257.232C328.511 255.643 331.331 254.023 336.616 254.023C338.43 254.023 339.598 255.1 339.93 255.54C342.431 258.85 342.304 262.489 341.654 266.872C340.513 274.562 327.633 275.907 326.766 282.846C326.466 285.241 326.969 285.508 324.834 286.069C318.857 287.637 314.341 285.199 308.504 283.415L305.187 282.514C302.001 283.111 301.254 286.029 298.503 287.712C293.48 290.787 288.501 287.01 282.034 285.983C282.034 285.983 281.468 285.971 281.164 285.849C275.43 283.54 293.211 277.102 303.661 271.022C309.589 267.574 297.907 258.24 313.389 249.979Z" fill="#5DCF29"/>
<path d="M300.155 291.596C306.573 292.039 323.31 289.971 325.928 295.576C325.333 301.21 318.257 305.496 312.65 305.33C307.744 304.396 289.015 302.609 286.474 300.908C289.322 296.601 296.406 297.24 300.114 294.096L300.155 291.596Z" fill="#49E2EA"/>
</svg>
