<svg width="80" height="80" viewBox="0 0 80 80" fill="none" xmlns="http://www.w3.org/2000/svg">
<path d="M72.9998 33.4813C74.0669 31.0614 77.1913 32.5439 79.7541 34.5896L80.0001 34.7895V71.7242C80.0001 76.2947 76.2947 80.0001 71.7243 80.0001H8.27588C3.7053 80.0001 9.65094e-05 76.2947 0 71.7242V32.6117C5.33173 31.6287 7.45976 33.8744 10.0566 37.3073C10.3235 37.6602 10.6024 38.0291 10.8977 38.4108C15.842 44.8012 26.1632 45.0675 33.476 42.2835C41.0345 49.0607 45.5054 44.8906 47.0715 42.2835C57.4993 45.3799 67.8931 45.0575 72.9998 33.4813Z" fill="#49E2EA"/>
<path d="M0 32.6119C5.33187 31.6288 7.45987 33.8746 10.0567 37.3076C10.3237 37.6605 10.6024 38.029 10.8977 38.4106C15.8421 44.8011 21.5198 46.9075 33.2712 43.5688C36.7005 49.0403 43.6426 51.2986 48.9379 43.5688C62.0978 46.9494 67.8931 45.0576 72.9998 33.4813C74.1016 30.9832 77.3949 32.6437 80.0001 34.7893V31.7008V8.27587C80.0001 3.70524 76.2947 0 71.7243 0H8.27588C3.70524 0 0 3.70524 0 8.27587V32.6119Z" fill="#13BFD7"/>
<path d="M35.384 43.1229C34.4226 41.771 34.1776 39.7104 34.4226 39.0394C34.8935 37.7495 36.4406 38.7711 40.8318 38.7711C45.223 38.7711 46.4533 38.2181 47.1933 39.0393C47.6719 39.5702 47.2336 41.9818 46.5844 43.1229C43.9099 47.8235 38.5045 47.5104 35.384 43.1229Z" fill="#0A8BA4"/>
<path d="M37.0066 42.9271C36.0859 41.6326 36.1569 40.5235 36.3294 40.051C36.6611 39.1424 37.7508 39.8619 40.8437 39.8619C43.9367 39.8619 44.8032 39.4724 45.3244 40.0508C45.6615 40.4248 45.3528 42.1234 44.8955 42.9271C43.0117 46.238 39.2045 46.0175 37.0066 42.9271Z" fill="#0F4A5C"/>
<path d="M37.993 44.0317C37.3164 43.3194 38.2092 43.1156 39.0778 43.1157C39.946 43.1158 40.0825 43.1157 41.1651 43.1157C42.2477 43.1157 42.6718 43.1157 43.2187 43.1157C43.7656 43.1157 44.7877 43.2654 44.0778 44.0317C41.9751 46.3014 39.0778 45.1737 37.993 44.0317Z" fill="#FF6467"/>
<path d="M28.6592 3.82927C29.735 3.16852 31.3153 3.18501 31.894 4.39093C32.2969 5.23035 31.5711 5.82159 31.3861 5.99555C30.5653 6.76769 28.8191 6.31776 28.3103 5.1894C27.9536 4.39838 28.4476 3.95916 28.6592 3.82927Z" fill="#49E2EA"/>
<path d="M56.0795 11.5855C59.0864 11.2373 62.4994 12.2629 64.9805 13.98C73.8682 20.1305 73.6128 36.6402 63.5488 41.5168C61.9719 42.281 60.5923 42.5371 58.8751 42.7634C58.4277 42.8224 57.9721 42.8067 57.5234 42.7634C54.726 42.4941 50.6717 42.0405 49.2924 41.4275C49.2924 41.4275 50.3045 36.1259 45.7033 37.2817C41.7644 29.5321 41.3662 19.9337 49.1513 14.1035C51.1902 12.5764 53.5798 11.9453 56.0795 11.5855Z" fill="#F8FAFA"/>
<path d="M50.8857 20.5187C59.4102 19.2863 61.0322 33.6468 53.3672 35.442C47.0729 36.9161 45.0901 29.51 46.8927 24.2472C47.5692 22.272 48.8856 20.808 50.8857 20.5187Z" fill="#0F4A5C"/>
<path d="M23.4033 11.342C32.8201 10.6343 39.0892 19.9872 38.1776 28.5598C37.7929 32.1761 37.2651 33.9704 35.7237 37.1848C32.6569 36.7496 32.3909 38.7784 32.6569 40.8736C28.8655 41.9379 27.7105 42.2058 25.2458 42.4029C17.2719 43.0405 12.2545 38.1533 10.5124 32.0689C8.06797 23.532 12.0715 12.6383 23.4033 11.342Z" fill="#F8FAFA"/>
<path d="M28.9862 20.5291C36.9363 20.0015 37.4499 34.5669 29.7305 35.7313C21.3469 36.9959 20.4338 21.0968 28.9862 20.5291Z" fill="#0F4A5C"/>
<path d="M30.2622 23.4003C30.7219 23.1799 31.265 23.2268 31.6804 23.5226C32.0954 23.8187 32.317 24.3168 32.2585 24.8232C32.1999 25.3295 31.871 25.7641 31.3993 25.9578C30.6983 26.2454 29.8955 25.9235 29.5878 25.2314C29.2801 24.5393 29.5789 23.7277 30.2622 23.4003Z" fill="#F8FAFA"/>
<path d="M50.5523 23.1812C51.3281 23.0975 52.0267 23.6544 52.118 24.4296C52.2093 25.2045 51.6594 25.9082 50.8852 26.0072C50.3773 26.0722 49.874 25.8595 49.5666 25.4503C49.2591 25.0411 49.195 24.4986 49.3992 24.029C49.603 23.5597 50.0432 23.236 50.5523 23.1812Z" fill="#F8FAFA"/>
<path d="M21.3693 7.11032C20.6169 6.97597 18.9831 7.0317 18.2385 7.20273C16.4342 7.61736 12.8367 9.21653 14.4687 10.8072C15.1733 11.4939 16.8098 10.4527 18.2385 9.80809C20.3705 8.84621 22.9656 9.96136 23.6025 8.88858C24.2394 7.81576 22.7446 7.356 21.3693 7.11032Z" fill="#0A8BA4"/>
<path d="M58.7821 7.11032C59.5344 6.97597 61.1683 7.0317 61.9128 7.20273C63.7171 7.61736 67.3147 9.21653 65.6827 10.8072C64.978 11.4939 63.3416 10.4527 61.9129 9.80809C59.7808 8.84621 57.1858 9.96136 56.5488 8.88858C55.912 7.81576 57.4068 7.356 58.7821 7.11032Z" fill="#0A8BA4"/>
</svg>
