<svg width="69" height="69" viewBox="0 0 69 69" fill="none" xmlns="http://www.w3.org/2000/svg">
<g clip-path="url(#clip0_175_886)">
<mask id="mask0_175_886" style="mask-type:alpha" maskUnits="userSpaceOnUse" x="0" y="0" width="69" height="69">
<path d="M34.5 69C53.5538 69 69 53.5538 69 34.5C69 15.4462 53.5538 0 34.5 0C15.4462 0 0 15.4462 0 34.5C0 53.5538 15.4462 69 34.5 69Z" fill="#D9D9D9"/>
</mask>
<g mask="url(#mask0_175_886)">
<path d="M59.9346 30.2012C60.74 28.3751 69.2197 30.8 71.1536 32.3439L72.2317 34.4999L65.2177 59.0626C65.2177 62.512 62.4214 65.3084 58.9721 65.3084L37.7341 91.6405L11.0884 65.3084C7.639 65.3084 7.03107 61.7288 4.84265 59.0626C-6.46939 45.2812 -0.00259161 30.1874 -0.00259161 30.1874C6.46615 26.9532 10.4724 30.4979 12.4322 33.0886C12.6337 33.3549 12.8441 33.6335 13.067 33.9214C16.7984 38.7443 24.5877 38.9452 30.1066 36.8442C35.8109 41.9588 39.185 38.8118 40.3669 36.8442C48.2366 39.1809 56.0808 38.9377 59.9346 30.2012Z" fill="#49E2EA"/>
<path d="M0 30.1875C5.39062 28.0312 10.4751 30.4982 12.4349 33.089C12.6364 33.3552 12.8468 33.6334 13.0696 33.9215C16.8011 38.7444 21.086 40.334 29.9546 37.8144C32.5426 41.9436 37.7818 43.6479 41.778 37.8144C51.7097 40.3654 56.0832 38.9378 59.9373 30.2013C60.7687 28.3161 68.1121 30.7244 70.0781 32.3438L73.3125 25.875L65.2203 11.1791C65.2203 7.72972 62.4239 4.93341 58.9747 4.93341L35.5781 -6.46875L11.091 4.93341C7.64153 4.93341 4.84524 7.72972 4.84524 11.1791L0 30.1875Z" fill="#13BFD7"/>
<path d="M31.5483 37.4776C30.8227 36.4572 30.6379 34.9022 30.8227 34.3959C31.178 33.4223 32.3457 34.1932 35.6596 34.1932C38.9735 34.1932 39.902 33.7759 40.4605 34.3956C40.8217 34.7965 40.4909 36.6164 40.001 37.4776C37.9825 41.025 33.9033 40.7887 31.5483 37.4776Z" fill="#0F4A5C"/>
<path d="M32.716 38.7558C32.2054 38.2182 32.7855 37.4722 34.3345 37.4722C34.9898 37.4722 35.0929 37.4722 35.9099 37.4722C36.7269 37.4722 36.2057 37.4722 37.4596 37.4722C38.7134 37.4722 39.6158 38.2107 39.0414 38.7506C36.4849 41.1542 33.5345 39.6176 32.716 38.7558Z" fill="#FF6467"/>
<path d="M26.4733 7.82309C27.2854 7.32444 28.478 7.33688 28.9147 8.24699C29.2187 8.88047 28.671 9.32669 28.5315 9.45796C27.912 10.0407 26.5941 9.70114 26.2101 8.84957C25.941 8.25262 26.3138 7.92113 26.4733 7.82309Z" fill="#49E2EA"/>
<path d="M47.1676 13.6768C49.4368 13.414 52.0127 14.188 53.885 15.4839C60.5926 20.1256 60.3996 32.5854 52.8045 36.2657C51.6146 36.8423 50.5734 37.0357 49.2775 37.2065C48.9398 37.2509 48.5959 37.239 48.2574 37.2065C46.1462 37.0031 43.0864 36.6607 42.0454 36.1982C42.0454 36.1982 42.8092 32.1971 39.3367 33.0695C36.3641 27.2209 36.0635 19.9771 41.9389 15.5771C43.4778 14.4246 45.2811 13.9483 47.1676 13.6768Z" fill="#F8FAFA"/>
<path d="M43.2451 20.4186C49.6785 19.4884 50.9026 30.3262 45.1178 31.681C40.3676 32.7934 38.8711 27.2042 40.2317 23.2324C40.7421 21.7418 41.7355 20.6369 43.2451 20.4186Z" fill="#0F4A5C"/>
<path d="M22.5056 13.4929C29.6123 12.9588 34.3436 20.0173 33.6555 26.4871C33.3653 29.2162 32.9668 30.5704 31.8035 32.9961C29.4892 32.6677 29.2883 34.1987 29.4892 35.7801C26.6279 36.5833 25.7561 36.7855 23.8961 36.9341C17.8782 37.4154 14.0917 33.7271 12.7769 29.1352C10.9322 22.6925 13.9536 14.4712 22.5056 13.4929Z" fill="#F8FAFA"/>
<path d="M26.72 20.4263C32.7198 20.0281 33.1075 31.0206 27.2815 31.8992C20.9546 32.8536 20.2655 20.8547 26.72 20.4263Z" fill="#0F4A5C"/>
<path d="M27.6832 22.5932C28.0301 22.4268 28.44 22.4621 28.7536 22.6855C29.0666 22.9089 29.234 23.2847 29.1898 23.667C29.1456 24.0491 28.8974 24.3771 28.5414 24.5233C28.0124 24.7404 27.4065 24.4974 27.1743 23.9752C26.9421 23.4527 27.1676 22.8401 27.6832 22.5932Z" fill="#F8FAFA"/>
<path d="M42.9954 22.4279C43.5809 22.3647 44.1081 22.785 44.1771 23.37C44.2458 23.9548 43.831 24.4858 43.2466 24.5607C42.8633 24.6096 42.4835 24.4492 42.2515 24.1402C42.0195 23.8314 41.971 23.4219 42.1252 23.0677C42.2789 22.7134 42.6112 22.4691 42.9954 22.4279Z" fill="#F8FAFA"/>
<path d="M20.9714 10.2995C20.4036 10.1981 19.1706 10.2401 18.6087 10.3692C17.247 10.6821 14.532 11.889 15.7636 13.0895C16.2954 13.6077 17.5304 12.8219 18.6086 12.3354C20.2177 11.6095 22.176 12.4511 22.6569 11.6415C23.1375 10.8318 22.0094 10.4849 20.9714 10.2995Z" fill="#0A8BA4"/>
<path d="M49.205 10.2995C49.7727 10.1981 51.0057 10.2401 51.5676 10.3692C52.9292 10.6821 55.6444 11.889 54.4127 13.0895C53.881 13.6077 52.6459 12.8219 51.5678 12.3354C49.9586 11.6095 48.0003 12.4511 47.5194 11.6415C47.0388 10.8318 48.167 10.4849 49.205 10.2995Z" fill="#0A8BA4"/>
</g>
</g>
<defs>
<clipPath id="clip0_175_886">
<rect width="69" height="69" fill="white"/>
</clipPath>
</defs>
</svg>
