<svg width="338" height="406" viewBox="0 0 338 406" fill="none" xmlns="http://www.w3.org/2000/svg">
<path d="M105.37 0.151995C105.897 0.101995 106.424 0.0720097 106.952 0.0420097C130.234 -1.08799 168.03 20.8219 185.353 36.3919C190.672 36.6419 197.313 37.592 202.544 38.762C229.485 44.722 252.858 61.352 267.327 84.832C291.699 123.662 289.08 171.962 279.259 214.812C290.169 212.652 315.202 206.092 323.853 210.742C353.563 226.692 327.281 266.522 303.469 273.582C283.041 279.632 273.674 278.112 255.871 270.112C242.357 290.722 223.787 307.492 207.827 315.972C191.867 324.452 177.367 328.452 151.367 330.452C145.76 330.883 138.367 330.952 138.367 330.952C138.367 330.952 135.377 344.961 130.5 363.5C122.873 388.1 100.737 420.322 70.3089 398.882C61.9499 392.992 59.5699 378.832 59.0269 368.832C47.5279 370.772 38.3009 369.502 27.7379 364.662C8.50187 355.852 -12.6577 330.212 9.40887 312.382C14.7999 308.022 20.1789 305.962 26.6689 303.852C5.31687 277.062 11.6249 250.032 18.8699 220.152C17.1939 216.092 15.6999 211.962 14.3939 207.772C-5.11073 146.772 11.3239 68.592 78.8709 47.132C78.5749 25.422 79.9649 4.652 105.37 0.151995Z" fill="#0F4A5C"/>
<path d="M17.334 191.93C15.375 182.27 14.263 172.46 14.011 162.6C13.028 132.76 21.357 102.21 42.008 79.7399C71.134 47.9099 113.858 46.0399 153.618 42.8999C221.8 37.5299 276.873 75.8699 278.674 148.29C280.301 233.11 244.306 322.27 147.286 324.27C123.947 324.9 100.955 318.53 81.271 305.97C88.926 289.92 84.247 277.26 78.295 261.64C76.808 257.74 68.497 233.52 67.439 232.58C66.023 232.72 64.652 232.82 63.247 233.06C48.262 236.64 37.396 227.54 27.696 217.54C21.251 210.86 19.575 200.89 17.334 191.93Z" fill="#13BFD7"/>
<path d="M264.957 149.28L278.674 148.29C280.301 233.11 244.306 322.27 147.286 324.27C123.947 324.9 100.955 318.53 81.271 305.97C88.926 289.92 84.247 277.26 78.295 261.64C76.808 257.74 68.497 233.52 67.439 232.58C66.023 232.72 64.652 232.82 63.247 233.06C48.262 236.64 37.396 227.54 27.696 217.54C21.251 210.86 19.575 200.89 17.334 191.93C18.764 189.62 20.532 183.79 21.816 180.95C24.811 174.34 33.232 165.08 40.22 162.7C55.456 157.38 63.062 172.63 72.121 181.6C89.896 199.21 112.365 198.52 134.274 189.82C137.325 196.26 138.681 199.13 143.93 204.33C161.495 221.73 193.81 218.15 201.557 192.91C202.508 189.82 202.198 185.52 202.109 182.22C225.293 186.73 238.635 182.72 253.46 164.46C254.266 164.88 254.196 164.63 255.493 164.41C260.29 160.02 262.209 155.09 264.957 149.28Z" fill="#49E2EA"/>
<path d="M184.128 171.3C180.342 165.95 177.366 160.06 175.297 153.84C170.495 139.14 170.869 118.6 178.23 105.23C198.69 68.07 248.754 78.99 259.42 117.83C264.156 135.08 261.629 149.36 253.46 164.46C238.635 182.72 225.293 186.73 202.109 182.22C197.31 173.54 193.607 172.28 184.128 171.3Z" fill="#F8FAFA"/>
<path d="M198.522 112.35C229.528 110.22 231.817 154.47 207.608 165.01C179.943 168.85 171.954 122.9 198.522 112.35Z" fill="#0F4A5C"/>
<path d="M208.327 121.89C210.905 121.49 213.359 123.14 213.96 125.67C214.561 128.21 213.108 130.79 210.623 131.58C208.835 132.16 206.876 131.68 205.553 130.35C204.229 129.01 203.765 127.05 204.35 125.27C204.935 123.48 206.472 122.18 208.327 121.89Z" fill="#F8FAFA"/>
<path d="M104.329 90.72C128.106 89.46 146.544 101.64 153.722 124.64C158.683 140.18 157.118 157.06 149.387 171.42C141.298 175.81 139.967 176.73 135.434 184.74C128.167 188.72 121.801 190.38 113.726 191.6C48.4899 196.56 41.9519 99.84 104.329 90.72Z" fill="#F8FAFA"/>
<path d="M115.169 118.42C143.471 115.9 147.462 149.97 131.52 166.64C129.692 168.55 126.495 169.97 124.069 171.07C95.2782 174.74 88.1472 130.27 115.169 118.42Z" fill="#0F4A5C"/>
<path d="M123.594 127.83C125.884 126.48 128.836 127.19 130.256 129.44C131.677 131.69 131.053 134.66 128.847 136.15C127.36 137.15 125.447 137.26 123.852 136.44C122.257 135.63 121.233 134.01 121.18 132.21C121.126 130.42 122.051 128.75 123.594 127.83Z" fill="#F8FAFA"/>
<path d="M187.483 187.04C189.87 188.66 190.188 189.32 191.187 191.99C191.251 199.16 180.436 202.89 174.575 203.78C165.506 205.15 158.908 202.51 151.678 197.22L146.259 191.85C149.211 190.87 151.869 189.87 154.769 188.75C167.109 200.27 176.211 199.15 187.483 187.04Z" fill="#0F4A5C"/>
<path d="M199.787 56.89C200.649 56.83 201.511 56.7699 202.374 56.7199C209.049 56.3499 225.835 60.8499 225.817 68.4999C224.154 70.7099 223.543 70.6599 220.762 71.5799C218.873 70.2899 213.231 66.37 211.174 65.92C205.76 64.75 198.15 67.01 193.778 63.14L193.838 61.5799C195.755 58.8899 196.961 58.44 199.787 56.89Z" fill="#0A8BA4"/>
<path d="M99.264 66.6399C102.48 66.4099 107.503 66.5499 110.156 68.4999C111.509 70.4399 111.681 70.5199 111.593 72.7699C108.546 76.9199 101.297 74.1599 93.751 77.7599L92.905 78.1599C89.3 80.2099 87.22 82.7899 83.235 80.6499C81.545 72.6999 93.086 68.0099 99.264 66.6399Z" fill="#0A8BA4"/>
<path d="M25.833 355.66C-0.475027 335.34 1.75297 320.41 33.176 309.74C48.895 318.63 60.947 324.11 77.117 312.29C94.365 323.11 111.88 328.89 132.075 331.13C128.748 348.86 121.136 383.8 105.437 394.41C98.094 399.37 92.647 399.57 84.224 399.16C91.182 386.62 99.661 369.34 106.141 356.28C106.942 354.67 106.354 351.34 105.299 349.45L104.227 349.52C101.119 352.9 81.47 394.03 80.962 398.5C67.888 391.73 64.894 374.97 66.86 361.66C49.834 363.17 43.517 364.4 27.669 357.42C35.523 353.33 80.009 327.78 78.538 321.26L77.037 321.09C69.495 324.83 30.87 350.11 25.833 355.66Z" fill="#046C88"/>
<path d="M27.6962 217.54C37.3962 227.54 48.2622 236.64 63.2472 233.06C60.0672 241.77 78.2002 274.33 78.3122 287C78.4502 302.59 70.8742 315.82 52.6332 311.08C41.2802 308.05 31.6002 300.63 25.7312 290.46C12.8882 267.83 21.4932 240.5 27.6962 217.54Z" fill="#0A8BA4"/>
<path d="M310.96 216.75C344.344 211.89 332.699 271.8 278.087 271.36C270.025 269.95 266.18 269.28 258.769 265.41C267.367 250.04 271.334 239.54 276.944 222.83C286.649 221.77 300.67 218.43 310.96 216.75Z" fill="#0A8BA4"/>
<path d="M110.698 7.97998L116.415 9.03998C129.09 12.83 137.737 16.01 149.66 21.87C150.727 25.62 153.65 33.0799 154.293 35.6899C145.366 35.8499 136.454 36.4701 127.593 37.5601L124.182 37.86C110.725 39.65 99.3272 41.49 86.0972 44.49C86.6342 26.3 88.3692 8.40998 110.698 7.97998Z" fill="#0A8BA4"/>
<path d="M116.415 9.04004C129.09 12.83 137.737 16.0101 149.66 21.8701C150.727 25.6201 153.65 33.08 154.293 35.69C145.366 35.85 136.454 36.4701 127.593 37.5601C125.96 31.4201 115.942 12.65 116.415 9.04004Z" fill="#0A8BA4"/>
<path d="M110.698 7.97998L116.415 9.03998C115.942 12.65 125.96 31.4201 127.593 37.5601L124.182 37.86C118.926 28.68 115.241 17.71 110.698 7.97998Z" fill="#046C88"/>
<path d="M149.66 21.8701C150.896 22.4501 154.209 23.8301 155.044 24.6101C158.905 26.8001 169.553 31.9001 170.607 35.3801C168.652 36.0801 167.258 35.7801 165.152 35.6301C162.768 36.0101 156.981 35.7401 154.293 35.6901C153.65 33.0801 150.727 25.6201 149.66 21.8701Z" fill="#0A8BA4"/>
<path d="M149.66 21.8701C150.896 22.4501 154.209 23.8301 155.044 24.6101C155.472 28.0801 157.055 31.9001 158.272 35.2301C159.936 35.2501 163.842 35.1001 165.152 35.6301C162.768 36.0101 156.981 35.7401 154.293 35.6901C153.65 33.0801 150.727 25.6201 149.66 21.8701Z" fill="#046C88"/>
</svg>
