<svg width="80" height="80" viewBox="0 0 80 80" fill="none" xmlns="http://www.w3.org/2000/svg">
<path d="M0 32.6119C5.33187 31.6288 7.45987 33.8746 10.0567 37.3076C10.3237 37.6605 10.6024 38.029 10.8977 38.4106C15.8421 44.8011 22.9173 45.9579 30.2302 43.1739C34.4139 49.2197 48.4189 48.151 51.1102 43.6318C61.5378 46.7282 67.8931 45.0576 72.9998 33.4813C74.1016 30.9832 77.3949 32.6437 80.0001 34.7893V31.7008V8.27587C80.0001 3.70524 76.2947 0 71.7243 0H8.27588C3.70524 0 0 3.70524 0 8.27587V32.6119Z" fill="#13BFD7"/>
<path d="M35.7087 42.5037C32.6437 40.3581 34.3302 38.5268 36.4762 39.8983C38.0085 40.8777 40.6537 41.9964 43.3625 40.8777C45.3631 40.0515 46.8109 38.7625 47.5509 39.5837C48.0295 40.1147 47.2038 41.1244 46.7384 41.4822C42.5519 44.7009 37.2361 43.573 35.7087 42.5037Z" fill="#0A8BA4"/>
<path d="M28.6572 3.82927C29.7331 3.16852 31.3133 3.18501 31.8921 4.39093C32.295 5.23035 31.5691 5.82159 31.3842 5.99555C30.5633 6.76769 28.8171 6.31776 28.3083 5.1894C27.9517 4.39838 28.4457 3.95916 28.6572 3.82927Z" fill="#49E2EA"/>
<path d="M56.0795 11.5855C59.0864 11.2373 62.4994 12.2629 64.9805 13.98C73.8682 20.1305 73.6128 36.6402 63.5488 41.5168C61.9719 42.281 60.5871 42.501 58.8751 42.7634C58.4244 42.7861 57.9736 42.7861 57.5234 42.7634C54.728 42.4736 52.721 42.1429 51.3417 41.5299C51.3417 41.5299 50.9481 36.7255 45.7033 37.2817C41.7644 29.5321 41.3662 19.9337 49.1513 14.1035C51.1902 12.5764 53.5798 11.9453 56.0795 11.5855Z" fill="#F8FAFA"/>
<path d="M50.8857 20.5187C59.4102 19.2863 61.0322 33.6468 53.3672 35.442C47.0729 36.9161 45.0901 29.51 46.8927 24.2472C47.5692 22.272 48.8856 20.808 50.8857 20.5187Z" fill="#0F4A5C"/>
<path d="M23.4062 11.3652C32.823 10.6575 39.0921 20.0104 38.1806 28.583C37.7958 32.1993 37.2681 33.9936 35.7266 37.208C32.2047 36.9432 31.1148 37.886 29.9335 41.1029C28.1986 41.7748 27.0694 42.1098 25.2487 42.4261C6.08666 43.9584 3.9981 13.5853 23.4062 11.3652Z" fill="#F8FAFA"/>
<path d="M28.9843 20.5291C36.9344 20.0015 37.448 34.5669 29.7285 35.7313C21.345 36.9959 20.4318 21.0968 28.9843 20.5291Z" fill="#0F4A5C"/>
<path d="M30.2622 23.4001C30.7219 23.1797 31.265 23.2266 31.6804 23.5224C32.0954 23.8184 32.317 24.3165 32.2585 24.8229C32.1999 25.3293 31.871 25.7639 31.3993 25.9576C30.6983 26.2452 29.8955 25.9233 29.5878 25.2312C29.2801 24.5391 29.5789 23.7274 30.2622 23.4001Z" fill="#F8FAFA"/>
<path d="M50.5523 23.1809C51.3281 23.0972 52.0267 23.6542 52.118 24.4294C52.2093 25.2042 51.6594 25.908 50.8852 26.007C50.3773 26.072 49.874 25.8592 49.5666 25.4501C49.2591 25.0409 49.195 24.4983 49.3992 24.0288C49.603 23.5595 50.0432 23.2358 50.5523 23.1809Z" fill="#F8FAFA"/>
<path d="M21.3693 7.11032C20.6169 6.97597 18.9831 7.0317 18.2385 7.20273C16.4342 7.61736 12.8367 9.21653 14.4687 10.8072C15.1733 11.4939 16.8098 10.4527 18.2385 9.80809C20.3705 8.84621 22.9656 9.96136 23.6025 8.88858C24.2394 7.81576 22.7446 7.356 21.3693 7.11032Z" fill="#0A8BA4"/>
<path d="M58.7821 7.11032C59.5344 6.97597 61.1683 7.0317 61.9128 7.20273C63.7171 7.61736 67.3147 9.21653 65.6827 10.8072C64.978 11.4939 63.3416 10.4527 61.9129 9.80809C59.7808 8.84621 57.1858 9.96136 56.5488 8.88858C55.912 7.81576 57.4068 7.356 58.7821 7.11032Z" fill="#0A8BA4"/>
<path d="M72.9998 33.4813C74.0669 31.0614 77.1913 32.5439 79.7541 34.5896L80.0001 34.7895V71.7242C80.0001 76.2947 76.2947 80.0001 71.7243 80.0001H8.27588C3.7053 80.0001 9.65094e-05 76.2947 0 71.7242V32.6117C5.33173 31.6287 7.45976 33.8744 10.0566 37.3073C10.3235 37.6602 10.6024 38.0291 10.8977 38.4108C15.842 44.8012 22.9173 45.9577 30.2301 43.1737C37.7886 49.9509 49.5438 46.2388 51.11 43.6317C61.5378 46.7281 67.8931 45.0575 72.9998 33.4813Z" fill="#49E2EA"/>
</svg>
