<svg width="80" height="80" viewBox="0 0 80 80" fill="none" xmlns="http://www.w3.org/2000/svg">
<path d="M72.9997 33.4725C74.0668 31.0521 77.1912 32.535 79.7539 34.581L80 34.781V71.7228C80 76.2941 76.2946 80.0002 71.7241 80.0002H8.27586C3.70529 80.0002 9.65092e-05 76.2941 0 71.7228V32.6028C5.33172 31.6195 7.45975 33.8657 10.0566 37.2992C10.3235 37.6523 10.6024 38.0212 10.8977 38.4029C15.842 44.7946 25.0382 45.3882 32.351 42.6036C37.219 51.4351 40.0072 46.1318 47.8638 41.9622C58.2915 45.0592 67.893 45.051 72.9997 33.4725Z" fill="#49E2EA"/>
<path d="M0 32.6181C5.33186 31.6349 7.45986 33.8811 10.0567 37.3148C10.3237 37.6678 10.6024 38.0363 10.8977 38.418C15.8421 44.8097 23.429 46.1441 31.9309 43.4311C31.7093 48.3646 34.7772 49.6915 36.8224 48.8227C41.8939 46.6682 43.8758 48.5293 45.8805 48.8227C50.1241 49.4435 50.0133 45.538 50.0133 43.4311C60.4408 46.5281 67.893 45.0662 72.9997 33.4877C74.1015 30.9892 77.3948 32.65 80 34.7961V31.707V8.27747C80 3.70596 76.2946 0 71.7241 0H8.27586C3.70523 0 0 3.70595 0 8.27747V32.6181Z" fill="#13BFD7"/>
<path d="M65.6966 13.4447C64.9545 13.2614 63.4842 12.5459 62.8734 12.0868C61.3934 10.974 58.7564 8.04929 60.8945 7.25955C61.8175 6.91862 62.8895 8.53574 63.9328 9.70594C65.4898 11.4521 68.3145 11.4887 68.4603 12.7281C68.606 13.9675 67.0532 13.7796 65.6966 13.4447Z" fill="#0A8BA4"/>
<path d="M15.2985 14.0936C16.0406 13.9103 17.5109 13.1948 18.1217 12.7357C19.6018 11.6229 22.2387 8.69822 20.1007 7.90848C19.1776 7.56755 18.1056 9.18466 17.0623 10.3549C15.5053 12.1011 12.6806 12.1376 12.5348 13.377C12.3892 14.6164 13.942 14.4285 15.2985 14.0936Z" fill="#0A8BA4"/>
<path d="M35.7087 43.2835C32.6437 45.4296 34.3302 47.2612 36.4762 45.8894C38.0085 44.9098 40.6537 43.791 43.3624 44.9098C45.3631 45.7362 46.8109 47.0255 47.5509 46.2041C48.0295 45.673 47.2038 44.6631 46.7384 44.3052C42.5519 41.0859 37.2361 42.214 35.7087 43.2835Z" fill="#0A8BA4"/>
<path d="M28.6593 3.8296C29.7353 3.16872 31.3159 3.18521 31.8948 4.39137C32.2977 5.23095 31.5717 5.8223 31.3867 5.9963C30.5657 6.76858 28.8192 6.31857 28.3103 5.18999C27.9536 4.39882 28.4477 3.95951 28.6593 3.8296Z" fill="#49E2EA"/>
<path d="M57.6043 11.478C54.5934 11.4778 52.6282 12.2648 50.1471 13.9822C41.2594 20.1339 41.5149 36.6468 51.5789 41.5243C53.1557 42.2886 54.5405 42.5088 56.2525 42.7712C56.7033 42.7939 57.154 42.7939 57.6042 42.7712C60.3996 42.4813 62.4066 42.1506 63.7859 41.5374C63.7859 41.5374 67.5423 40.132 69.4243 37.2884C73.3632 29.5374 72.0908 22.0109 69.4235 17.9597C62.5922 16.99 60.4662 15.345 57.6043 11.478Z" fill="#F8FAFA"/>
<path d="M51.1435 20.8147C59.668 19.5819 61.29 33.9453 53.625 35.7408C47.3308 37.2152 45.3479 29.8077 47.1506 24.5438C47.827 22.5683 49.1434 21.1039 51.1435 20.8147Z" fill="#0F4A5C"/>
<path d="M50.8123 23.4776C51.5883 23.3938 52.287 23.9509 52.3783 24.7262C52.4697 25.5012 51.9196 26.2052 51.1453 26.3042C50.6372 26.3692 50.1339 26.1564 49.8264 25.7471C49.5189 25.3378 49.4548 24.7952 49.659 24.3256C49.8629 23.8562 50.3031 23.5324 50.8123 23.4776Z" fill="#F8FAFA"/>
<path d="M54.3972 26.3212C54.9103 26.2658 55.3723 26.6342 55.4327 27.1468C55.4931 27.6592 55.1294 28.1247 54.6174 28.1901C54.2815 28.2331 53.9486 28.0924 53.7453 27.8218C53.542 27.5512 53.4996 27.1924 53.6346 26.8819C53.7694 26.5715 54.0605 26.3574 54.3972 26.3212Z" fill="#F8FAFA"/>
<path d="M25.2373 11.3665C21.8438 14.948 20.4947 16.4902 13.2638 17.5939C11.7118 19.7875 9.92255 23.5037 10.463 28.5876C10.8478 32.2045 11.3076 34.2311 13.3493 37.0889C15.3195 39.8464 18.7101 41.1098 18.7101 41.1098C20.445 41.7818 21.5742 42.1169 23.3948 42.4333C42.5569 43.9659 44.6454 13.587 25.2373 11.3665Z" fill="#F8FAFA"/>
<path d="M29.244 20.8258C37.1941 20.298 37.7077 34.8662 29.9883 36.0309C21.6048 37.2957 20.6916 21.3935 29.244 20.8258Z" fill="#0F4A5C"/>
<path d="M30.5221 23.6977C30.9819 23.4773 31.5251 23.5242 31.9406 23.8201C32.3556 24.1162 32.5773 24.6144 32.5188 25.1208C32.4602 25.6273 32.1313 26.062 31.6594 26.2557C30.9583 26.5433 30.1554 26.2214 29.8476 25.5292C29.5398 24.8369 29.8387 24.0251 30.5221 23.6977Z" fill="#F8FAFA"/>
<path d="M28.6863 26.2667C29.1994 26.2114 29.6613 26.5797 29.7217 27.0924C29.7821 27.6048 29.4185 28.0702 28.9064 28.1357C28.5705 28.1787 28.2377 28.038 28.0344 27.7674C27.8311 27.4968 27.7887 27.138 27.9237 26.8274C28.0585 26.5171 28.3496 26.303 28.6863 26.2667Z" fill="#F8FAFA"/>
</svg>
