<svg width="332" height="329" viewBox="0 0 332 329" fill="none" xmlns="http://www.w3.org/2000/svg">
<path d="M188.304 0.248923L189.059 0.180952C215.647 -1.9947 217.44 15.7579 218.932 36.7712C265.827 57.3428 276.287 89.136 275.407 137.501C286.299 131.408 300.982 119.44 313.541 118.761C327.771 117.991 332.207 133.031 331.993 144.816C331.531 170.281 310.067 189.933 286.52 195.917C277.888 198.128 271.976 198.15 263.263 197.967C253.433 217.218 247.486 226.528 232.058 241.566C247.489 242.022 289.769 242.062 284.981 266.886C283.666 273.696 279.571 278.866 274.957 283.791C266.471 292.849 257.16 295.307 245.557 297.74C247.283 310.092 242.134 321.737 230.166 326.482C223.583 329.11 216.218 328.973 209.736 326.103C195.358 319.896 190.108 305.907 184.905 292.502C181.943 284.804 179.796 277.912 177.422 270.069C168.033 271.547 163.732 271.583 154.202 271.062C144.672 270.542 142.585 270.42 136.439 269.191C127.924 267.488 124.851 266.265 111.036 259.357C102.842 255.26 99.457 252.392 93.3118 246.915C71.3004 227.295 59.0635 203.878 53.1003 174.961C30.9513 162.995 12.8684 148.796 3.51516 124.201C-0.563267 113.476 -1.7171 98.1787 3.44629 87.5528C6.96912 80.3637 13.2265 74.8873 20.8195 72.347C26.9146 70.3484 33.2278 70.5368 39.0508 73.3754C48.6745 78.0668 50.0905 87.4119 53.2855 97.029C61.7316 66.2306 81.873 42.1845 112.474 31.9741C116.128 30.268 127.491 29.0331 130.283 27.0508C146.627 15.4408 168.091 4.15936 188.304 0.248923Z" fill="#0F4A5C"/>
<path d="M55.1535 123.711C56.7384 76.2115 86.9623 37.8242 135.584 33.1426C196.881 27.2401 266.269 45.5196 269.495 118.222C269.779 124.707 269.686 130.69 269.401 137.306L269.261 140.412L262.072 144.426C257.67 146.09 249.627 147.734 247.843 151.202L247.792 155.439C246.077 166.462 244.498 175.071 241.782 185.912L239.768 191.136C245.354 193.703 250.868 195.295 256.792 196.803C221.825 270.965 136.186 292.431 80.9581 224.662C62.6048 202.141 50.8055 152.478 55.1535 123.711Z" fill="#13BFD7"/>
<path d="M55.1535 123.711C55.5567 123.108 55.9665 122.508 56.3811 121.913C61.4552 114.653 64.9198 113.32 73.2733 111.869C76.8297 134.792 93.7392 149.632 117.339 145.654C118.076 145.531 118.809 145.383 119.536 145.211C119.793 153.633 120.262 159.19 123.92 167.159C130.883 182.701 148.975 191.34 164.789 183.317C175.136 178.067 179.776 168.632 183.179 158.185C200.915 161.988 217.593 159.742 229.806 145.174C233.738 140.485 236.099 133.736 243.323 134.268C251.133 134.843 256.747 139.099 262.072 144.426C257.67 146.09 249.627 147.735 247.843 151.202L247.792 155.439C246.077 166.462 244.498 175.072 241.782 185.912L239.768 191.136C245.354 193.703 250.868 195.295 256.792 196.803C221.825 270.965 136.186 292.431 80.9581 224.662C62.6048 202.141 50.8055 152.478 55.1535 123.711Z" fill="#49E2EA"/>
<path d="M73.2728 111.869C72.9261 97.9034 75.1764 85.7017 85.3352 75.1414C92.3087 67.8679 101.905 63.6879 111.982 63.5355C121.122 63.3413 129.952 66.8461 136.469 73.255C152.83 89.613 148.111 115.863 135.591 133.043C125.891 132.667 122.533 136.391 119.536 145.211C118.808 145.383 118.076 145.531 117.338 145.654C93.7387 149.632 76.8292 134.792 73.2728 111.869Z" fill="#F8FAFA"/>
<path d="M118.303 86.8919C142.478 85.3734 142.946 120.607 121.763 128.818C96.8702 130.94 96.2605 94.3022 118.303 86.8919Z" fill="#0F4A5C"/>
<path d="M125.329 95.1871C127.27 94.5331 129.382 95.5271 130.116 97.4397C130.848 99.3523 129.941 101.503 128.06 102.313C126.772 102.868 125.284 102.673 124.183 101.805C123.081 100.937 122.545 99.5359 122.784 98.1543C123.023 96.7735 124 95.6337 125.329 95.1871Z" fill="#F8FAFA"/>
<path d="M190.882 73.4364C246.154 70.615 248.805 152.043 199.379 156.567C194.146 157.084 189.027 156.079 183.92 155.095C183.733 138.531 174.433 138.722 161.055 137.792C149.393 111.534 159.901 77.9376 190.882 73.4364Z" fill="#F8FAFA"/>
<path d="M189.915 94.9043C215.242 96.6358 211.172 133.642 190.496 138.175C167.363 138.644 165.936 99.0311 189.915 94.9043Z" fill="#0F4A5C"/>
<path d="M195.552 103.93C197.793 103.121 200.264 104.291 201.058 106.536C201.852 108.782 200.665 111.245 198.413 112.023C196.183 112.794 193.749 111.621 192.962 109.397C192.176 107.173 193.333 104.731 195.552 103.93Z" fill="#F8FAFA"/>
<path d="M141.198 171.544C135.5 168.012 126.34 153.099 131.694 147.456C144.112 148.684 156.217 151.707 168.952 151.359C171.04 151.302 171.128 151.344 172.358 152.78C173.197 156.289 171.037 159.722 169.408 162.782C162.707 171.983 151.838 180.156 141.198 171.544Z" fill="#0F4A5C"/>
<path d="M141.198 171.543C146.279 160.484 158.971 158.973 169.408 162.782C162.707 171.983 151.838 180.156 141.198 171.543Z" fill="#EF7377"/>
<path d="M119.098 43.8694C123.246 43.6801 131.187 42.5616 131.359 48.6149C128.349 52.2582 122.434 49.6827 116.77 51.692L116.172 51.9091C113.461 53.5259 109.384 56.766 107.075 53.3898C107.313 47.4283 114.346 45.1298 119.098 43.8694Z" fill="#0A8BA4"/>
<path d="M195.576 53.1211C202.99 52.2393 221.9 55.967 214.617 66.0857C211.516 64.7303 207.789 61.364 204.986 60.4134C203.153 59.7914 197.432 59.7431 195.371 59.0416C193.873 58.5319 194.122 58.4057 193.507 57.1233C193.875 55.0386 194.201 54.8485 195.576 53.1211Z" fill="#0A8BA4"/>
<path d="M226.532 247.224C238.291 247.053 266.374 247.726 276.074 256.137C284.041 263.046 276.509 272.922 271.22 279.113C260.071 273.015 249.302 266.999 237.274 262.798C234.787 261.928 232.737 259.724 229.954 259.388L228.912 260.525C229.724 265.472 238.472 267.404 242.634 269.342C251.025 273.25 260.544 276.71 268.402 281.561C257.721 290.384 252.034 290.685 238.577 292.055C240.433 299.733 241.064 309.351 235.796 315.921C232.703 311.327 216.826 289.099 213.521 287.536L212.356 288.007C211.97 292.961 229.626 313.211 233.903 317.165C227.862 322.139 220.007 324.301 212.624 321.027C195.671 313.509 188.378 285.613 183.193 269.047C202.248 264.233 210.712 258.157 226.532 247.224Z" fill="#046C88"/>
<path d="M247.791 155.438C261.594 151.49 271.689 145.958 284.165 138.94C292.586 134.812 309.509 120.432 318.914 126.276C330.23 133.308 326.315 156.009 319.927 165.223C300.105 193.816 271.689 196.64 241.781 185.911C244.497 175.071 246.077 166.462 247.791 155.438Z" fill="#0A8BA4"/>
<path d="M26.4816 77.0382C45.2094 75.7033 44.5006 91.704 51.4151 105.378C47.8317 129.343 47.5006 143.097 51.4848 166.935C47.6211 165.039 44.9636 163.432 41.34 161.2C31.8884 155.51 19.7022 142.386 14.316 132.846C2.93948 112.697 -0.929159 84.6682 26.4816 77.0382Z" fill="#0A8BA4"/>
<path d="M192.555 5.95732L198.068 5.59351C211.643 11.2158 212.499 21.0984 212.864 34.5407C203.605 31.6931 196.503 30.0092 186.952 28.3137L183.235 27.9162C175.445 27.1271 168.776 26.6559 160.97 26.5748L158.209 26.5511C159.308 23.5379 162.609 17.9574 162.204 15.7531C163.892 14.8648 165.67 14.3773 167.49 13.7873C175.736 9.78422 183.583 7.47331 192.555 5.95732Z" fill="#0A8BA4"/>
<path d="M192.555 5.95728C192.9 9.1638 184.81 23.4469 183.235 27.9162C175.445 27.1271 168.776 26.6559 160.97 26.5748L158.209 26.551C159.308 23.5379 162.609 17.9574 162.204 15.7531C163.892 14.8648 165.67 14.3772 167.49 13.7872C175.736 9.78417 183.583 7.47327 192.555 5.95728Z" fill="#0A8BA4"/>
<path d="M162.204 15.753C163.892 14.8647 165.67 14.3771 167.49 13.7871C165.599 17.5779 163.043 23.0396 160.97 26.5747L158.209 26.5509C159.308 23.5378 162.609 17.9573 162.204 15.753Z" fill="#046C88"/>
<path d="M192.555 5.95732L198.068 5.59351C196.7 7.31108 187.616 25.9709 186.952 28.3137L183.234 27.9162C184.809 23.4469 192.9 9.16384 192.555 5.95732Z" fill="#046C88"/>
<path d="M162.204 15.7532C162.609 17.9575 159.308 23.538 158.21 26.5511C150.368 26.5044 145.678 26.5478 138.081 28.476C146.443 23.2602 153.218 19.7898 162.204 15.7532Z" fill="#0A8BA4"/>
</svg>
