<svg width="80" height="80" viewBox="0 0 80 80" fill="none" xmlns="http://www.w3.org/2000/svg">
<path d="M72.9997 33.4725C74.0668 31.0521 77.1912 32.535 79.7539 34.581L80 34.781V71.7228C80 76.2941 76.2946 80.0002 71.7241 80.0002H8.27586C3.70529 80.0002 9.65092e-05 76.2941 0 71.7228V32.6028C5.33172 31.6195 7.45975 33.8657 10.0566 37.2992C10.3235 37.6523 10.6024 38.0212 10.8977 38.4029C15.842 44.7946 25.0382 45.3882 32.351 42.6036C37.219 51.4351 40.0072 46.1318 47.8638 41.9622C58.2915 45.0592 67.893 45.051 72.9997 33.4725Z" fill="#49E2EA"/>
<path d="M0 32.6181C5.33186 31.6349 7.45986 33.8811 10.0567 37.3148C10.3237 37.6678 10.6024 38.0363 10.8977 38.418C15.8421 44.8097 23.429 46.1441 31.9309 43.4311C31.7093 48.3646 34.7772 49.6915 36.8224 48.8227C41.8939 46.6682 43.8758 48.5293 45.8805 48.8227C50.1241 49.4435 50.0133 45.538 50.0133 43.4311C60.4408 46.5281 67.893 45.0662 72.9997 33.4877C74.1015 30.9892 77.3948 32.65 80 34.7961V31.707V8.27747C80 3.70596 76.2946 0 71.7241 0H8.27586C3.70523 0 0 3.70595 0 8.27747V32.6181Z" fill="#13BFD7"/>
<path d="M35.7087 43.2835C32.6437 45.4296 34.3302 47.2612 36.4762 45.8894C38.0085 44.9098 40.6537 43.791 43.3624 44.9098C45.3631 45.7362 46.8109 47.0255 47.5509 46.2041C48.0295 45.673 47.2038 44.6631 46.7384 44.3052C42.5519 41.0859 37.2361 42.214 35.7087 43.2835Z" fill="#0A8BA4"/>
<path d="M28.6593 3.8296C29.7353 3.16872 31.3159 3.18521 31.8948 4.39137C32.2977 5.23095 31.5717 5.8223 31.3867 5.9963C30.5657 6.76858 28.8192 6.31857 28.3103 5.18999C27.9536 4.39882 28.4477 3.95951 28.6593 3.8296Z" fill="#49E2EA"/>
<path d="M57.5246 11.478C60.5355 11.4778 62.5007 12.2648 64.9818 13.9822C73.8695 20.1339 73.614 36.6468 63.5501 41.5243C61.9732 42.2886 60.5884 42.5088 58.8764 42.7712C58.4256 42.7939 57.9749 42.7939 57.5247 42.7712C54.7293 42.4813 52.7223 42.1506 51.343 41.5374C51.343 41.5374 47.5866 40.132 45.7046 37.2884C41.7657 29.5374 43.0381 22.0109 45.7054 17.9597C52.5367 16.99 54.6627 15.345 57.5246 11.478Z" fill="#F8FAFA"/>
<path d="M50.8847 20.5227C59.4092 19.2899 61.0312 33.6533 53.3663 35.4488C47.072 36.9232 45.0891 29.5157 46.8918 24.2518C47.5682 22.2763 48.8846 20.8119 50.8847 20.5227Z" fill="#0F4A5C"/>
<path d="M23.4062 11.3665C26.7997 14.948 28.1489 16.4902 35.3798 17.5939C36.9317 19.7875 38.721 23.5037 38.1805 28.5876C37.7958 32.2045 37.336 34.2311 35.2942 37.0889C33.324 39.8464 29.9335 41.1098 29.9335 41.1098C28.1986 41.7818 27.0694 42.1169 25.2487 42.4333C6.08667 43.9659 3.99811 13.587 23.4062 11.3665Z" fill="#F8FAFA"/>
<path d="M28.9843 20.5328C36.9343 20.005 37.4479 34.5733 29.7285 35.7379C21.345 37.0028 20.4318 21.1006 28.9843 20.5328Z" fill="#0F4A5C"/>
<path d="M30.2613 23.4045C30.7212 23.184 31.2644 23.2309 31.6798 23.5268C32.0949 23.823 32.3166 24.3211 32.258 24.8276C32.1995 25.3341 31.8705 25.7688 31.3987 25.9625C30.6976 26.2501 29.8946 25.9282 29.5868 25.236C29.2791 24.5437 29.5779 23.7319 30.2613 23.4045Z" fill="#F8FAFA"/>
<path d="M50.5525 23.1853C51.3285 23.1016 52.0272 23.6587 52.1185 24.434C52.2099 25.209 51.6599 25.9129 50.8855 26.0119C50.3775 26.0769 49.8741 25.8641 49.5666 25.4549C49.2591 25.0456 49.195 24.503 49.3992 24.0333C49.6031 23.5639 50.0434 23.2402 50.5525 23.1853Z" fill="#F8FAFA"/>
<path d="M32.7195 13.5078C31.9589 13.4329 30.4016 12.9357 29.7314 12.5689C28.1074 11.68 25.0789 9.16394 27.0814 8.07572C27.946 7.60592 29.2384 9.05249 30.4385 10.0609C32.2294 11.5656 35.0297 11.1966 35.3516 12.4022C35.6733 13.6079 34.1099 13.6447 32.7195 13.5078Z" fill="#0A8BA4"/>
<path d="M48.5314 13.28C49.292 13.2051 50.8494 12.7079 51.5196 12.3412C53.1436 11.4522 56.172 8.93615 54.1696 7.84793C53.305 7.37813 52.0126 8.82471 50.8125 9.83311C49.0216 11.3378 46.2212 10.9688 45.8994 12.1745C45.5776 13.3801 47.1411 13.4169 48.5314 13.28Z" fill="#0A8BA4"/>
</svg>
