<svg width="332" height="400" viewBox="0 0 332 400" fill="none" xmlns="http://www.w3.org/2000/svg">
<path d="M103.779 0.1497C104.298 0.100455 104.817 0.0709224 105.337 0.0413753C128.267 -1.07156 165.493 20.5075 182.554 35.8424C187.793 36.0887 194.334 37.0244 199.486 38.1768C226.02 44.0468 249.04 60.4256 263.29 83.5511C287.294 121.795 284.715 169.365 275.042 211.568C285.788 209.441 310.443 202.98 318.963 207.56C348.224 223.269 322.339 262.498 298.887 269.451C278.767 275.41 269.542 273.913 252.007 266.034C238.697 286.332 220.408 302.849 204.689 311.201C188.97 319.553 174.689 323.493 149.081 325.462C143.559 325.887 136.277 325.955 136.277 325.955C136.277 325.955 133.333 339.753 128.53 358.011C121.018 382.24 99.2158 413.976 69.2473 392.859C61.0145 387.058 58.6704 373.112 58.1356 363.263C46.8102 365.174 37.7226 363.923 27.3191 359.156C8.3735 350.479 -12.4666 325.226 9.2668 307.665C14.5764 303.371 19.8742 301.342 26.2662 299.264C5.23659 272.879 11.4493 246.257 18.5849 216.828C16.9343 212.829 15.4628 208.761 14.1765 204.635C-5.03357 144.556 11.1529 67.5564 77.68 46.4204C77.3884 25.0382 78.7575 4.58175 103.779 0.1497Z" fill="#0F4A5C"/>
<path d="M17.0722 189.032C15.1428 179.518 14.0476 169.856 13.7994 160.145C12.8313 130.755 21.0345 100.667 41.3737 78.536C70.0599 47.1866 112.139 45.3448 151.298 42.2522C218.451 36.9633 272.692 74.7244 274.466 146.051C276.069 229.59 240.617 317.404 145.062 319.374C122.075 319.994 99.4306 313.72 80.0439 301.35C87.5833 285.542 82.9749 273.074 77.1128 257.689C75.6482 253.848 67.4627 229.994 66.4207 229.068C65.0261 229.206 63.6758 229.305 62.292 229.541C47.5333 233.067 36.8313 224.104 27.2778 214.255C20.9301 207.676 19.2794 197.857 17.0722 189.032Z" fill="#13BFD7"/>
<path d="M260.956 147.026L274.466 146.051C276.069 229.59 240.617 317.404 145.062 319.374C122.075 319.994 99.4306 313.72 80.0439 301.35C87.5833 285.542 82.9749 273.073 77.1128 257.689C75.6482 253.848 67.4627 229.994 66.4207 229.068C65.0261 229.206 63.6758 229.304 62.292 229.541C47.5333 233.067 36.8313 224.104 27.2778 214.255C20.9301 207.676 19.2794 197.857 17.0723 189.032C18.4807 186.757 20.222 181.015 21.4866 178.218C24.4364 171.707 32.7302 162.587 39.6127 160.243C54.6186 155.003 62.1098 170.023 71.032 178.858C88.5386 196.202 110.668 195.522 132.247 186.954C135.251 193.296 136.587 196.123 141.757 201.245C159.057 218.382 190.884 214.856 198.514 189.997C199.45 186.954 199.145 182.719 199.057 179.468C221.891 183.91 235.032 179.961 249.633 161.977C250.427 162.39 250.358 162.144 251.635 161.927C256.36 157.604 258.25 152.748 260.956 147.026Z" fill="#49E2EA"/>
<path d="M181.348 168.713C177.619 163.444 174.688 157.643 172.65 151.517C167.921 137.039 168.289 116.809 175.539 103.641C195.69 67.0421 244.998 77.7972 255.503 116.051C260.168 133.04 257.679 147.105 249.633 161.977C235.032 179.961 221.891 183.91 199.057 179.469C194.331 170.92 190.684 169.679 181.348 168.713Z" fill="#F8FAFA"/>
<path d="M195.524 110.654C226.062 108.556 228.317 152.138 204.473 162.518C177.226 166.3 169.357 121.044 195.524 110.654Z" fill="#0F4A5C"/>
<path d="M205.181 120.05C207.72 119.656 210.137 121.281 210.729 123.773C211.321 126.274 209.89 128.815 207.443 129.593C205.682 130.165 203.752 129.692 202.449 128.382C201.145 127.062 200.688 125.132 201.264 123.379C201.841 121.616 203.354 120.335 205.181 120.05Z" fill="#F8FAFA"/>
<path d="M102.754 89.3502C126.172 88.1092 144.331 100.105 151.401 122.758C156.287 138.063 154.746 154.689 147.131 168.832C139.164 173.156 137.854 174.062 133.389 181.951C126.232 185.871 119.962 187.505 112.009 188.707C47.7578 193.592 41.3185 98.3325 102.754 89.3502Z" fill="#F8FAFA"/>
<path d="M113.43 116.632C141.305 114.15 145.236 147.706 129.534 164.124C127.734 166.005 124.585 167.404 122.196 168.487C93.8396 172.102 86.8163 128.303 113.43 116.632Z" fill="#0F4A5C"/>
<path d="M121.728 125.9C123.983 124.57 126.891 125.269 128.289 127.485C129.689 129.702 129.074 132.627 126.902 134.094C125.437 135.079 123.553 135.187 121.982 134.38C120.411 133.582 119.402 131.986 119.35 130.214C119.297 128.451 120.208 126.806 121.728 125.9Z" fill="#F8FAFA"/>
<path d="M184.652 184.216C187.003 185.812 187.316 186.462 188.3 189.091C188.363 196.153 177.711 199.827 171.939 200.703C163.007 202.053 156.508 199.452 149.388 194.242L144.05 188.953C146.958 187.988 149.576 187.003 152.432 185.9C164.586 197.246 173.55 196.143 184.652 184.216Z" fill="#0F4A5C"/>
<path d="M196.77 56.0309C197.619 55.9718 198.468 55.9126 199.318 55.8634C205.892 55.499 222.425 59.9311 222.407 67.4655C220.769 69.6422 220.167 69.5929 217.428 70.499C215.568 69.2285 210.011 65.3678 207.985 64.9245C202.653 63.7722 195.158 65.9981 190.852 62.1865L190.911 60.65C192.799 58.0006 193.987 57.5575 196.77 56.0309Z" fill="#0A8BA4"/>
<path d="M97.7652 65.6337C100.933 65.4072 105.88 65.5451 108.493 67.4656C109.825 69.3764 109.995 69.4552 109.908 71.6712C106.907 75.7585 99.7675 73.0402 92.3354 76.5858L91.5022 76.9798C87.9516 78.9989 85.903 81.5399 81.9782 79.4322C80.3137 71.6023 91.6805 66.9831 97.7652 65.6337Z" fill="#0A8BA4"/>
<path d="M25.4429 350.29C-0.467856 330.277 1.7265 315.572 32.675 305.063C48.1567 313.819 60.0267 319.216 75.9526 307.575C92.9401 318.231 110.191 323.924 130.081 326.13C126.804 343.593 119.307 378.005 103.845 388.455C96.6128 393.34 91.2481 393.537 82.9523 393.133C89.8052 380.782 98.1562 363.763 104.538 350.901C105.327 349.315 104.748 346.035 103.709 344.174L102.653 344.243C99.5922 347.572 80.2399 388.081 79.7395 392.483C66.8629 385.815 63.9141 369.308 65.8504 356.199C49.0815 357.687 42.8599 358.898 27.2512 352.023C34.9866 347.995 78.8009 322.831 77.3521 316.409L75.8738 316.242C68.4457 319.925 30.4039 344.824 25.4429 350.29Z" fill="#046C88"/>
<path d="M27.278 214.255C36.8316 224.104 47.5335 233.067 62.2922 229.541C59.1602 238.12 77.0194 270.188 77.1297 282.667C77.2657 298.021 69.8041 311.051 51.8385 306.383C40.6569 303.399 31.1231 296.091 25.3427 286.074C12.6936 263.786 21.1687 236.869 27.278 214.255Z" fill="#0A8BA4"/>
<path d="M306.265 213.477C339.145 208.691 327.676 267.696 273.888 267.263C265.948 265.874 262.161 265.214 254.862 261.403C263.33 246.265 267.237 235.923 272.762 219.466C282.321 218.422 296.13 215.132 306.265 213.477Z" fill="#0A8BA4"/>
<path d="M109.027 7.85962L114.657 8.90361C127.141 12.6364 135.657 15.7684 147.4 21.5399C148.451 25.2333 151.33 32.5806 151.963 35.1512C143.171 35.3088 134.394 35.9195 125.667 36.9931L122.307 37.2885C109.053 39.0514 97.8274 40.8637 84.7972 43.8184C85.3261 25.903 87.0349 8.28313 109.027 7.85962Z" fill="#0A8BA4"/>
<path d="M114.657 8.90356C127.141 12.6363 135.657 15.7683 147.4 21.5399C148.451 25.2332 151.33 32.5805 151.963 35.1511C143.171 35.3087 134.394 35.9195 125.667 36.993C124.058 30.9457 114.192 12.4591 114.657 8.90356Z" fill="#0A8BA4"/>
<path d="M109.027 7.85962L114.657 8.90361C114.192 12.4591 124.058 30.9458 125.667 36.9931L122.307 37.2885C117.131 28.2471 113.501 17.4427 109.027 7.85962Z" fill="#046C88"/>
<path d="M147.4 21.54C148.618 22.1113 151.881 23.4704 152.703 24.2387C156.506 26.3956 166.993 31.4186 168.031 34.8461C166.106 35.5355 164.733 35.24 162.658 35.0923C160.31 35.4665 154.611 35.2006 151.963 35.1513C151.33 32.5807 148.451 25.2334 147.4 21.54Z" fill="#0A8BA4"/>
<path d="M147.4 21.54C148.618 22.1113 151.881 23.4704 152.703 24.2387C153.125 27.6563 154.684 31.4186 155.882 34.6983C157.521 34.718 161.368 34.5703 162.658 35.0923C160.31 35.4665 154.611 35.2006 151.963 35.1513C151.33 32.5807 148.451 25.2334 147.4 21.54Z" fill="#046C88"/>
</svg>
