<svg width="332" height="381" viewBox="0 0 332 381" fill="none" xmlns="http://www.w3.org/2000/svg">
<path d="M119.864 43.8809C123.938 26.434 125.762 1.09415 150.034 0.0188254C152.651 -0.0970632 155.535 0.337146 158.103 0.907736C185.43 9.99062 210.878 26.0719 230.462 47.2283C232.638 49.5749 243.851 53.0555 247.159 55.2818C262.859 63.9918 278.826 79.1906 287.79 94.8122C309.826 133.211 308.024 167.968 300.104 209.226C315.429 230.589 335.122 255.53 331.582 283.388C329.029 303.486 305.131 314.634 287.61 306.045C277.87 301.27 272.545 295.302 266.337 286.779C257.637 296.91 247.178 306.858 235.612 313.685C250.273 325.43 283.178 345.053 265.171 366.737C257.834 375.572 248.826 379.606 237.559 380.689C236.814 380.761 236.07 380.826 235.325 380.888L234.75 380.927C211.099 377.713 189.1 363.474 169.073 350.51C150.587 362.352 131.469 375.164 109.173 378.703C91.899 381.446 66.6303 368.386 71.7304 347.88C74.9385 334.983 91.3519 322.012 101.946 314.136C88.7755 305.345 78.4201 295.808 68.1742 283.735C60.6728 294.941 51.7727 304.551 37.8412 307.417C29.3679 309.154 20.5524 307.453 13.3355 302.689C-11.2623 286.347 3.1164 248.383 17.027 229.397C22.8921 221.394 29.6305 213.187 36.7619 206.288C22.3758 132.242 39.5124 64.6255 119.864 43.8809Z" fill="#0F4A5C"/>
<path d="M39.5365 158.139C39.2828 129.504 49.8083 100.46 69.9431 79.7665C97.9851 50.9465 136.842 46.7576 174.914 45.5142C243.346 43.279 296.964 87.6937 298.364 158.163C298.371 177.462 296.404 189.621 293.181 208.543L293.428 209.066C303.056 229.075 332.189 259.85 323.659 285.317C321.574 291.557 317.067 296.698 311.153 299.586C294.323 307.679 278.358 293.564 270.896 279.769C270.181 278.446 267.66 274.198 266.705 273.289C257.474 286.171 249.68 295.197 236.799 304.368C211.882 322.405 180.8 329.765 150.438 324.814C112.244 318.272 86.7862 297.349 65.0041 266.549C64.5903 271.475 64.83 273.315 62.7998 277.975C56.0683 293.681 37.4704 306.059 20.5347 298.213C6.94941 291.919 5.78554 278.883 8.47933 265.752C12.525 246.034 24.5306 231.24 36.9193 216.092C39.1535 213.362 41.3687 211.71 43.3582 208.229L43.8555 207.234C43.3582 204.747 40.582 183.28 40.2169 178.503C39.6638 171.245 39.4271 165.794 39.5365 158.139Z" fill="#49E2EA"/>
<path d="M39.5362 158.139C39.2825 129.504 49.808 100.46 69.9427 79.7665C97.9848 50.9465 136.842 46.7576 174.914 45.5142C243.346 43.279 296.964 87.6937 298.364 158.163C290.224 153.025 285.441 152.936 276.203 154.427C262.844 188.077 239.005 197.418 205.163 187.369C188.986 215.912 153.198 214.538 137.4 185.883C113.667 194.918 90.7052 191.164 74.6589 170.424C64.3781 157.137 60.3822 148.899 41.2988 152.417C39.7261 153.833 39.9629 155.571 39.5362 158.139Z" fill="#13BFD7"/>
<path d="M219.62 67.1653C226.72 67.7601 245.28 71.8118 243.013 82.0567C238.072 84.9007 230.424 77.3048 225.635 76.311C220.475 75.2407 216.269 79.3749 211.765 74.8806C211.425 72.2793 211.527 72.0406 213.125 69.1946L219.62 67.1653Z" fill="#0A8BA4"/>
<path d="M114.385 66.9741C118.93 67.0398 124.798 66.7712 126.475 71.9668C123.591 78.363 114.566 73.3753 105.542 79.2076L104.851 79.6592C102.373 81.4587 100.724 82.8852 97.6646 83.2284C95.4374 82.6066 96.2382 83.2433 95.0853 81.3861C95.1459 72.5099 107.236 68.1549 114.385 66.9741Z" fill="#0A8BA4"/>
<path d="M151.569 181.686C160.981 185.711 169.485 189.574 180.023 187.705C183.873 187.022 190.238 182.298 193.617 183.505C193.546 185.824 192.187 187.581 190.979 189.667C178.716 201.639 146.205 198.946 151.569 181.686Z" fill="#0A8BA4"/>
<path d="M132.44 57.8932C136.504 57.3669 139.887 56.7979 142.8 60.016C142.901 63.036 142.924 61.9955 141.152 65.2235C137.495 65.2971 133.574 65.8253 131.17 62.6073C130.853 59.809 130.858 60.7978 132.44 57.8932Z" fill="#49E2EA"/>
<path d="M221.289 86.3509C231.049 85.2209 242.125 88.5493 250.176 94.1219C279.021 114.083 278.191 167.663 245.531 183.489C240.413 185.969 235.919 186.684 230.362 187.535C228.9 187.609 227.437 187.609 225.976 187.535C194.291 186.004 213.597 170.138 187.615 169.745C174.832 144.595 173.539 113.444 198.805 94.5228C205.422 89.5669 213.177 87.5187 221.289 86.3509Z" fill="#F8FAFA"/>
<path d="M204.438 115.341C232.291 112.972 236.365 154.669 212.492 163.772C191.558 165.168 185.63 144.521 191.48 127.441C193.675 121.031 198.382 117.859 204.438 115.341Z" fill="#0F4A5C"/>
<path d="M115.262 85.6367C145.823 83.3398 166.168 113.694 163.21 141.515C161.961 153.251 160.248 159.074 155.246 169.506C143.816 168.647 140.279 171.707 136.445 182.147C130.815 184.327 127.15 185.414 121.241 186.441C59.0533 191.414 52.275 92.8417 115.262 85.6367Z" fill="#F8FAFA"/>
<path d="M133.359 115.377C159.144 117.316 159.831 156.762 135.774 164.713C108.26 164.538 106.084 120.84 133.359 115.377Z" fill="#0F4A5C"/>
<path d="M137.503 124.694C138.995 123.978 140.757 124.131 142.105 125.091C143.452 126.051 144.171 127.668 143.981 129.311C143.791 130.955 142.724 132.365 141.193 132.994C138.918 133.927 136.313 132.882 135.314 130.636C134.315 128.39 135.285 125.756 137.503 124.694Z" fill="#F8FAFA"/>
<path d="M128.625 41.9702C130.125 25.1837 134.053 6.40561 154.771 7.97463C156.474 8.39462 159.382 9.01116 160.94 9.54435C168.367 12.6523 185.696 20.9043 191.722 25.8701C193.272 26.6003 196.658 28.0486 197.863 28.9877C203.847 32.719 208.252 37.0173 213.807 41.2778C209.811 40.5875 205.138 39.6534 201.168 39.1739C198.527 39.1859 197.496 39.2893 194.875 38.6656L188.744 38.3025C181.822 38.2011 174.9 38.1891 167.978 38.2657C154.211 38.583 142.186 40.102 128.625 41.9702Z" fill="#0A8BA4"/>
<path d="M154.771 7.97461C156.474 8.39459 159.382 9.01114 160.94 9.54432C168.368 12.6522 185.696 20.9043 191.722 25.8701C193.272 26.6002 196.658 28.0486 197.863 28.9876C203.847 32.719 208.252 37.0173 213.807 41.2778C209.811 40.5874 205.139 39.6534 201.169 39.1739C198.528 39.1858 197.496 39.2893 194.875 38.6656L188.744 38.3025C181.823 38.201 174.9 38.1891 167.978 38.2657C167.715 35.743 156.728 13.2885 154.771 7.97461Z" fill="#0A8BA4"/>
<path d="M154.771 7.97461C156.474 8.39459 159.382 9.01114 160.94 9.54432C160.304 13.6764 170.399 32.899 172.87 37.632C178.047 37.5584 183.726 37.2192 188.744 38.3025C181.823 38.201 174.9 38.1891 167.978 38.2657C167.715 35.743 156.728 13.2885 154.771 7.97461Z" fill="#046C88"/>
<path d="M197.863 28.9875C203.848 32.7189 208.252 37.0172 213.807 41.2777C209.811 40.5873 205.139 39.6533 201.169 39.1738C200.213 36.1139 197.417 30.8756 197.863 28.9875Z" fill="#0A8BA4"/>
<path d="M191.722 25.8699C193.272 26.6 196.658 28.0484 197.863 28.9874C197.416 30.8755 200.213 36.1138 201.169 39.1737C198.528 39.1856 197.496 39.2891 194.875 38.6654C196.24 38.1899 195.694 38.6027 196.495 37.3045C195.922 33.815 193.345 29.1784 191.722 25.8699Z" fill="#046C88"/>
<path d="M65.0041 266.549C64.5903 271.475 64.83 273.316 62.7998 277.975C56.0683 293.681 37.4704 306.059 20.5347 298.213C6.94941 291.919 5.78554 278.883 8.47933 265.752C12.525 246.034 24.5306 231.24 36.9193 216.092C39.1535 213.362 41.3687 210.218 43.8555 207.234C44.8423 210.729 44.7271 210.256 45.509 212.771C49.9893 227.174 62.4486 252.5 65.0041 266.549Z" fill="#0A8BA4"/>
<path d="M293.181 208.543L293.428 209.067C303.056 229.075 332.189 259.851 323.658 285.317C321.573 291.557 317.067 296.698 311.153 299.586C294.323 307.679 278.357 293.564 270.896 279.77C270.18 278.447 267.66 274.198 266.705 273.29C268.925 271.766 291.441 215.395 293.181 208.543Z" fill="#0A8BA4"/>
<path d="M213.764 325.521L214.592 325.466C217.522 327.159 237.86 366.633 241.353 373.195C225.021 374.145 214.121 368.455 200.298 360.498C189.733 354.418 179.305 348.128 168.855 341.85C161.348 346.954 153.65 351.773 145.78 356.296C130.625 364.87 124.128 368.216 107.305 371.855C113.908 356.708 120.636 341.615 127.487 326.579C154.929 336.281 186.792 337.054 213.764 325.521Z" fill="#046C88"/>
<path d="M108.19 318.279L122.563 324.824C120.034 330.86 104.753 367.875 102.449 371.352C99.8761 372.162 97.4559 371.316 94.7134 370.748C58.2826 357.396 92.3846 330.777 108.19 318.279Z" fill="#046C88"/>
<path d="M228.496 318.771L229.715 318.846C245.033 329.553 278.634 349.68 252.945 368.196C250.764 369.402 247.723 370.651 245.391 371.689C236.468 355.187 229.788 339.408 219.443 323.366L228.496 318.771Z" fill="#046C88"/>
<path d="M213.301 123.981C215.818 123.71 218.085 125.517 218.382 128.033C218.678 130.548 216.894 132.832 214.381 133.153C212.733 133.364 211.099 132.673 210.102 131.345C209.104 130.017 208.896 128.257 209.558 126.733C210.22 125.21 211.648 124.159 213.301 123.981Z" fill="#F8FAFA"/>
</svg>
