<svg width="332" height="362" viewBox="0 0 332 362" fill="none" xmlns="http://www.w3.org/2000/svg">
<path d="M141.614 0.0901751C166.169 -1.49144 193.429 18.0232 209.172 35.7686C293.56 48.2653 303.948 123.709 294.267 194.973C310.412 211.738 335.255 237.142 331.647 262.946C329.518 278.17 312.867 285.518 298.893 282.308C285.663 279.27 277.335 272.044 270.082 260.896C260.392 279.672 241.055 292.704 222.164 301.268C229.341 310.056 241.694 323.336 243.172 334.577C245.22 350.156 227.87 359.391 214.524 360.83C191.921 363.268 177.673 349.384 161.588 336.117C159.121 333.75 156.167 331.381 153.523 329.167C148.708 330.532 141.742 333.931 137.12 336.005C112.929 346.858 86.785 352.572 62.6225 337.742C51.9875 331.214 38.975 317.23 48.0644 304.354C57.153 291.477 82.1437 286.911 96.6925 284.215C88.7548 277.284 84.2217 273.034 77.8619 264.75C60.4595 287.489 30.4457 299.586 6.3811 278.09C2.55268 274.552 -0.587909 266.956 0.0934543 261.754C3.21842 237.891 33.877 211.684 50.9374 196.146C31.1371 128.745 48.2502 61.9545 120.567 39.6797C121.386 21.1088 120.775 6.52296 141.614 0.0901751Z" fill="#0F4A5C"/>
<path d="M52.3487 171.803C45.7006 134.814 53.9461 91.4128 83.9174 66.4739C114.913 40.8426 156.877 38.2469 195.223 40.6004C263.935 44.8165 296.163 97.0774 290.419 162.542C290.095 195.969 279.246 246.21 255.077 271.316C234.559 292.63 198.144 306.08 168.687 305.87C136.579 305.64 100.515 285.532 82.4328 258.921C83.9322 255.869 85.6931 252.485 86.9059 249.347L83.3553 241.889C79.4711 231.115 72.1777 218.83 66.1073 209.049C65.0156 207.29 58.8684 198.494 58.5625 197.651C55.4685 188.737 53.996 181.052 52.3487 171.803Z" fill="#13BFD7"/>
<path d="M256.87 163.983C257.235 163.418 260.725 159.695 261.522 158.689C266.152 152.845 267.59 149.239 269.751 142.284C274.543 144.592 279.762 140.051 290.503 147.581C290.379 152.023 290.02 158.258 290.419 162.542C290.094 195.969 279.246 246.21 255.077 271.316C234.559 292.63 198.144 306.08 168.687 305.87C136.579 305.639 100.514 285.532 82.4326 258.921C83.9319 255.869 85.6929 252.485 86.9057 249.347L83.3551 241.889C79.4708 231.115 72.1775 218.83 66.107 209.049C65.0153 207.29 58.8682 198.494 58.5622 197.651C55.4683 188.737 53.9958 181.052 52.3485 171.802C53.7869 170.698 53.8691 170.556 55.0459 169.139C55.9444 161.418 57.9891 156.014 61.4093 149.259C70.2242 145.104 73.8367 144.618 82.6637 148.998C99.0881 178.071 116.027 186.067 148.656 175.889C161.131 207.297 207.234 206.533 213.132 174.412C224.383 177.621 254.486 180.285 256.87 163.983Z" fill="#49E2EA"/>
<path d="M195.664 158.1C189.11 143.495 186.552 133.689 188.808 117.243C193.963 79.6777 241.589 68.4974 262.873 99.7406C271.63 112.595 272.594 127.115 269.751 142.284C267.591 149.239 266.152 152.845 261.522 158.689C260.725 159.695 257.236 163.419 256.871 163.983C253.714 166.971 250.038 169.357 246.023 171.023C235.611 175.324 223.92 175.329 213.504 171.038C209.136 160.796 206.741 158.963 195.664 158.1Z" fill="#F8FAFA"/>
<path d="M212.13 107.591C239.435 104.581 243.266 143.961 221.257 154.923C197.032 158.466 192.259 129.661 203.234 113.599C205.38 110.458 208.666 109.01 212.13 107.591Z" fill="#0F4A5C"/>
<path d="M220.109 116.291C221.659 115.547 223.49 115.705 224.889 116.703C226.288 117.701 227.033 119.382 226.832 121.088C226.632 122.795 225.519 124.257 223.926 124.904C221.567 125.863 218.873 124.776 217.841 122.448C216.809 120.12 217.814 117.393 220.109 116.291Z" fill="#F8FAFA"/>
<path d="M125.657 83.412C146.674 81.8045 163.172 93.0579 170.007 112.944C175.101 127.838 174.025 144.15 167.018 158.246C156.758 160.501 153.866 161.594 149.14 171.351C144.27 173.819 140.215 174.8 134.98 175.961C74.1717 182.964 67.7167 91.2683 125.657 83.412Z" fill="#F8FAFA"/>
<path d="M136.675 108.946C165.364 108.182 164.799 150.873 140.915 158.086C115.11 158.76 111.533 117.114 136.675 108.946Z" fill="#0F4A5C"/>
<path d="M145.203 117.811C146.884 117.685 148.502 118.478 149.431 119.884C150.36 121.29 150.456 123.089 149.68 124.585C148.904 126.082 147.379 127.04 145.694 127.092C143.168 127.17 141.042 125.215 140.909 122.692C140.776 120.168 142.683 118.001 145.203 117.811Z" fill="#F8FAFA"/>
<path d="M195.94 173.095C198.825 173.379 199.136 173.951 199.96 176.487C198.683 184.142 185.836 188.175 179.124 187.202C174.204 186.489 172.133 185.367 168.06 182.662C165.962 180.582 162.856 177.124 165.629 174.33C176.01 172.722 176.275 189.882 195.94 173.095Z" fill="#0F4A5C"/>
<path d="M127.094 57.6396C129.391 57.464 131.701 57.4862 133.995 57.7062C137.17 58.0085 142.232 60.0976 141.591 63.9255C137.107 67.7903 130.906 64.7556 124.482 66.694L123.778 66.9112C120.691 68.7961 115.971 72.635 113.184 68.8552C113.306 61.9833 121.74 59.2231 127.094 57.6396Z" fill="#0A8BA4"/>
<path d="M214.293 53.5428C221.368 53.1102 238.642 55.7095 239.325 64.2813C237.779 66.2706 237.448 66.3871 235.074 67.2828C233.624 66.4962 227.075 62.3947 226.066 62.0693C221.128 60.4766 214.549 62.6619 210.398 58.7748L210.349 57.2431C211.692 55.1272 212.163 54.9118 214.293 53.5428Z" fill="#0A8BA4"/>
<path d="M64.8954 330.884C53.6216 323.164 44.6883 310.132 61.4067 301.479C73.6936 295.119 89.1253 292.533 102.635 289.539C129.696 307.913 152.631 316.385 185.723 311.527C188.225 313.195 207.269 348.414 211.418 354.52C192.768 352.729 181.886 345.519 168.473 332.805C152.639 317.797 153.592 321.82 135.471 329.629C128.371 332.726 121.042 335.272 113.553 337.247C97.0648 341.591 83.1907 341.786 68.017 332.943C74.8852 328.103 109.098 312.087 110.983 306.222L110.222 305.311C106.326 304.429 68.6317 327.292 64.8954 330.884Z" fill="#046C88"/>
<path d="M58.5625 197.651C58.8684 198.494 65.0156 207.29 66.1073 209.049C72.1777 218.83 79.4711 231.115 83.3554 241.889C70.3742 268.606 45.3678 297.586 11.9927 274.444C6.03476 270.313 5.43437 260.568 8.50998 254.206C19.5572 231.352 41.8857 216.01 58.5625 197.651Z" fill="#0A8BA4"/>
<path d="M293.02 204.001C304.867 211.147 323.474 239.381 325.452 253.023C327.459 266.865 319.679 274.44 306.866 276.501C291.133 276.349 281.675 267.876 274.203 255.02C284.148 234.134 286.94 226.211 293.02 204.001Z" fill="#0A8BA4"/>
<path d="M191.244 310.786C199.438 309.419 207.584 306.682 215.416 303.963C224.414 314.065 233.239 323.428 237.182 336.632C233.547 348.401 227.617 351.314 215.991 354.125C215.54 353.888 215.089 353.65 214.639 353.414C210.025 342.842 195 319.697 191.244 310.786Z" fill="#046C88"/>
<path d="M127.219 37.9723C128.105 22.0674 129.4 4.40703 150.43 6.62278L155.008 7.81989C158.266 16.2817 161.895 24.872 165.058 33.2913L160.549 33.405C148.233 34.3682 139.306 35.4783 127.219 37.9723Z" fill="#0A8BA4"/>
<path d="M150.43 6.6228L155.008 7.81992C158.266 16.2817 161.894 24.872 165.058 33.2913L160.548 33.405C159.245 27.3614 152.985 14.3127 150.43 6.6228Z" fill="#046C88"/>
<path d="M155.008 7.81982C164.016 11.4369 173.606 15.6318 181.821 20.8573C183.358 21.9241 185.52 23.3226 186.946 24.4254C191.688 27.6672 194.496 30.2158 198.748 34.0141C194.309 33.4779 191.425 33.1886 186.975 33.1377C180.491 33.2662 174.004 33.2857 167.519 33.1951L165.058 33.2912C161.895 24.8719 158.267 16.2816 155.008 7.81982Z" fill="#0A8BA4"/>
<path d="M186.946 24.4255C191.687 27.6673 194.496 30.2159 198.748 34.0142C194.309 33.478 191.425 33.1887 186.975 33.1378C186.242 31.9158 186.839 26.2447 186.946 24.4255Z" fill="#0A8BA4"/>
<path d="M181.821 20.8574C183.358 21.9242 185.52 23.3227 186.947 24.4255C186.839 26.2447 186.242 31.9158 186.975 33.1378C180.491 33.2663 174.004 33.2857 167.519 33.1952C172.267 32.3225 179.12 32.5213 184.098 32.4907C183.168 28.7082 182.514 24.7038 181.821 20.8574Z" fill="#046C88"/>
</svg>
