<svg width="80" height="80" viewBox="0 0 80 80" fill="none" xmlns="http://www.w3.org/2000/svg">
<path d="M73.0019 33.4811C74.0689 31.0611 77.1934 32.5437 79.7561 34.5894L80.0022 34.7893V71.724C80.0022 76.2945 76.2968 79.9999 71.7263 79.9999H8.27784C3.70726 79.9999 0.00204963 76.2945 0.00195312 71.724V32.6115C5.33369 31.6284 7.46173 33.8742 10.0585 37.3071C10.3255 37.66 10.6044 38.0289 10.8996 38.4105C15.844 44.801 22.9193 45.9575 30.2321 43.1735C39.6453 43.1735 43.0252 43.6314 51.112 43.6314C61.5398 46.7278 67.8951 45.0573 73.0019 33.4811Z" fill="#49E2EA"/>
<path d="M0 32.6119C5.33188 31.6288 7.45989 33.8746 10.0567 37.3076C10.3237 37.6606 10.6025 38.029 10.8977 38.4107C15.8421 44.8012 22.9174 45.958 30.2302 43.1739C31.6584 47.2293 33.8769 47.2293 41.3515 47.2293C48.8261 47.2293 49.9639 46.824 51.1103 43.6319C61.5378 46.7283 67.8932 45.0576 72.9999 33.4813C74.1017 30.9833 77.395 32.6438 80.0003 34.7894V31.7009V8.27589C80.0003 3.70525 76.2949 0 71.7244 0H8.27589C3.70524 0 0 3.70524 0 8.27589V32.6119Z" fill="#13BFD7"/>
<path d="M28.6592 3.82927C29.735 3.16852 31.3153 3.18501 31.8941 4.39093C32.2969 5.23036 31.5711 5.8216 31.3861 5.99555C30.5653 6.76769 28.8191 6.31776 28.3103 5.1894C27.9536 4.39839 28.4476 3.95916 28.6592 3.82927Z" fill="#49E2EA"/>
<path d="M56.0767 11.5857C59.079 11.1997 62.4965 12.2631 64.9777 13.9802C73.8654 20.1308 73.61 36.6404 63.546 41.5171C61.9691 42.2812 60.5894 42.5374 58.8723 42.7637C58.4248 42.8227 57.9693 42.8069 57.5206 42.7637C54.7231 42.4943 52.7182 42.1432 51.3389 41.5302C48.7714 40.3891 47.1108 38.9287 45.7859 36.9558C42.7818 32.4823 41.3634 19.934 49.1485 14.1037C51.1875 12.5767 53.5719 11.9078 56.0767 11.5857Z" fill="#F8FAFA"/>
<path d="M50.8828 20.518C59.4073 19.2855 61.0293 33.6461 53.3643 35.4413C47.07 36.9154 45.0872 29.5093 46.8898 24.2465C47.5663 22.2713 48.8827 20.8072 50.8828 20.518Z" fill="#0F4A5C"/>
<path d="M23.4102 11.3652C32.8269 10.6575 39.0961 20.0104 38.1845 28.583C37.7998 32.1993 37.2806 34.1493 35.1866 37.0343C33.6889 39.0978 32.4575 39.9298 29.9374 41.1029C28.2025 41.7748 27.0734 42.1098 25.2527 42.4262C6.09056 43.9584 4.002 13.5853 23.4102 11.3652Z" fill="#F8FAFA"/>
<path d="M28.9863 20.5291C36.9363 20.0015 37.4499 34.5669 29.7305 35.7313C21.3469 36.9959 20.4338 21.0968 28.9863 20.5291Z" fill="#0F4A5C"/>
<path d="M30.2631 23.4003C30.7229 23.1799 31.266 23.2268 31.6813 23.5226C32.0963 23.8187 32.318 24.3168 32.2594 24.8232C32.2009 25.3295 31.872 25.7641 31.4003 25.9578C30.6993 26.2454 29.8965 25.9235 29.5888 25.2314C29.2811 24.5393 29.5799 23.7277 30.2631 23.4003Z" fill="#F8FAFA"/>
<path d="M50.5474 23.1812C51.3232 23.0975 52.0218 23.6544 52.1131 24.4296C52.2045 25.2045 51.6545 25.9082 50.8803 26.0072C50.3724 26.0722 49.8691 25.8595 49.5617 25.4503C49.2543 25.0411 49.1902 24.4986 49.3943 24.029C49.5982 23.5597 50.0383 23.236 50.5474 23.1812Z" fill="#F8FAFA"/>
<path d="M25.7359 6.13553C25.0148 5.88204 23.3933 5.6745 22.6309 5.72368C20.7834 5.84299 16.9757 6.84331 18.3309 8.67556C18.916 9.4666 20.6985 8.70187 22.2122 8.29518C24.4711 7.68838 26.8533 9.20604 27.6543 8.24954C28.4553 7.29299 27.0538 6.59902 25.7359 6.13553Z" fill="#0A8BA4"/>
<path d="M54.4391 6.32304C55.1415 6.02186 56.7456 5.70629 57.5095 5.70434C59.3608 5.69975 63.2269 6.44305 61.9974 8.36188C61.4665 9.19029 59.6368 8.54655 58.0993 8.24206C55.8049 7.78778 53.5296 9.46144 52.6664 8.56069C51.8032 7.65987 53.1551 6.87367 54.4391 6.32304Z" fill="#0A8BA4"/>
<rect x="33.7705" y="42.4824" width="14.4029" height="2.04835" rx="1.02417" fill="#0A8BA4"/>
</svg>
