<svg width="69" height="69" viewBox="0 0 69 69" fill="none" xmlns="http://www.w3.org/2000/svg">
<g clip-path="url(#clip0_58_46)">
<path d="M0 28.1277C4.59873 27.2798 6.43413 29.2168 8.67392 32.1777C8.90419 32.4822 9.14459 32.7999 9.39927 33.1291C13.6638 38.6409 19.7662 39.6386 26.0735 37.2374C30.2722 44.853 39.7831 45.2181 44.0825 37.6324C53.0762 40.303 58.5577 38.8621 62.9623 28.8775C63.9126 26.723 66.753 28.1552 69 30.0058V27.3419V7.13793C69 3.19577 65.8041 0 61.8621 0H7.13793C3.19576 0 0 3.19576 0 7.13793V28.1277Z" fill="#13BFD7"/>
<path d="M30.798 39.1241C28.1545 37.2735 29.6091 35.694 31.46 36.877C32.7817 37.7217 35.0631 38.6865 37.3994 37.7217C39.1249 37.0091 40.3737 35.8973 41.012 36.6056C41.4247 37.0636 40.7126 37.9344 40.3112 38.2431C36.7003 41.0192 32.1154 40.0464 30.798 39.1241Z" fill="#0A8BA4"/>
<path d="M24.7179 3.30225C25.6459 2.73236 27.0088 2.74658 27.508 3.78668C27.8555 4.51068 27.2294 5.02063 27.0699 5.17066C26.3619 5.83663 24.8558 5.44857 24.417 4.47536C24.1094 3.79311 24.5355 3.41428 24.7179 3.30225Z" fill="#49E2EA"/>
<path d="M48.3682 9.99243C50.9616 9.69211 53.9053 10.5767 56.0452 12.0577C63.7109 17.3625 63.4906 31.6021 54.8104 35.8082C53.4504 36.4673 52.2559 36.6571 50.7793 36.8834C50.3906 36.9029 50.0018 36.9029 49.6135 36.8834C47.2025 36.6334 45.4714 36.3482 44.2818 35.8195C44.2818 35.8195 43.9424 31.6757 39.4187 32.1554C36.0213 25.4714 35.6779 17.1927 42.3926 12.1642C44.1512 10.8471 46.2122 10.3028 48.3682 9.99243Z" fill="#F8FAFA"/>
<path d="M43.8892 17.6969C51.2416 16.6339 52.6406 29.0199 46.0296 30.5682C40.6007 31.8396 38.8905 25.4519 40.4453 20.9127C41.0288 19.2091 42.1641 17.9464 43.8892 17.6969Z" fill="#0F4A5C"/>
<path d="M20.1898 9.80265C28.3118 9.19221 33.7189 17.2591 32.9327 24.653C32.6009 27.772 32.1456 29.3196 30.8161 32.092C27.7785 31.8636 26.8385 32.6768 25.8196 35.4513C24.3232 36.0308 23.3493 36.3198 21.779 36.5926C5.25173 37.9142 3.45035 11.7175 20.1898 9.80265Z" fill="#F8FAFA"/>
<path d="M24.9995 17.7064C31.8564 17.2513 32.2994 29.814 25.6413 30.8183C18.4106 31.909 17.623 18.196 24.9995 17.7064Z" fill="#0F4A5C"/>
<path d="M26.1005 20.1825C26.4971 19.9924 26.9655 20.0329 27.3237 20.288C27.6817 20.5434 27.8728 20.973 27.8224 21.4097C27.7719 21.8465 27.4882 22.2213 27.0813 22.3884C26.4767 22.6364 25.7843 22.3588 25.5189 21.7619C25.2535 21.1649 25.5112 20.4649 26.1005 20.1825Z" fill="#F8FAFA"/>
<path d="M43.6011 19.9931C44.2703 19.921 44.8728 20.4013 44.9515 21.0699C45.0303 21.7382 44.5561 22.3452 43.8883 22.4306C43.4502 22.4867 43.0161 22.3032 42.751 21.9503C42.4858 21.5973 42.4305 21.1294 42.6066 20.7244C42.7824 20.3196 43.1621 20.0404 43.6011 19.9931Z" fill="#F8FAFA"/>
<path d="M18.4299 6.13286C17.781 6.01698 16.3718 6.06505 15.7297 6.21256C14.1735 6.57017 11.0706 7.94946 12.4782 9.32142C13.0859 9.91372 14.4974 9.01568 15.7296 8.45968C17.5685 7.63006 19.8068 8.59187 20.3561 7.66661C20.9054 6.74129 19.6161 6.34476 18.4299 6.13286Z" fill="#0A8BA4"/>
<path d="M49.5606 5.03596C51.5492 4.64256 56.936 5.65744 56.7195 8.10713C56.6562 8.82478 56.2194 9.08626 55.5037 8.96554C54.8565 8.85638 54.5919 8.10713 52.9278 7.47452C51.5407 6.94731 51.1552 7.27014 49.5692 7.0058C48.6198 6.84757 48.4914 6.42858 48.5646 5.81614C48.6436 5.15522 49.3684 5.07403 49.5606 5.03596Z" fill="#0A8BA4"/>
<path d="M62.9623 28.8777C63.8826 26.7905 66.5774 28.0692 68.7878 29.8336L69 30.006V61.8621C69 65.8042 65.8041 69 61.8621 69H7.13793C3.19581 69 8.32392e-05 65.8042 0 61.8621V28.1277C4.59861 27.2798 6.43404 29.2167 8.67378 32.1776C8.90405 32.482 9.14455 32.8002 9.39923 33.1293C13.6637 38.6411 19.7662 39.6386 26.0734 37.2373C30.2721 44.853 39.7829 45.2181 44.0823 37.6324C53.0762 40.303 58.5577 38.8622 62.9623 28.8777Z" fill="#49E2EA"/>
</g>
<defs>
<clipPath id="clip0_58_46">
<rect width="69" height="69" fill="white"/>
</clipPath>
</defs>
</svg>
