<svg width="114" height="30" viewBox="0 0 114 30" fill="none" xmlns="http://www.w3.org/2000/svg">
<path d="M3.69936 29.0721C2.51986 29.0721 1.60842 28.7504 0.965052 28.1071C0.321683 27.4369 0 26.4987 0 25.2923V3.77978C0 2.54666 0.321683 1.60841 0.965052 0.965047C1.60842 0.321683 2.51986 0 3.69936 0C4.90567 0 5.81711 0.321683 6.43367 0.965047C7.07704 1.60841 7.39872 2.54666 7.39872 3.77978V25.2923C7.39872 26.4987 7.09044 27.4369 6.47388 28.1071C5.85732 28.7504 4.93248 29.0721 3.69936 29.0721ZM19.9252 29.1525C18.7457 29.1525 17.5394 29.0587 16.3063 28.8711C15.1 28.7102 14.0009 28.402 13.009 27.9462C12.3389 27.6782 11.8563 27.3163 11.5615 26.8606C11.2934 26.4048 11.1594 25.9223 11.1594 25.413C11.1862 24.9036 11.3336 24.4479 11.6017 24.0458C11.8965 23.6169 12.2718 23.322 12.7276 23.1612C13.2101 22.9735 13.7462 22.9869 14.336 23.2014C15.4619 23.6035 16.4671 23.8984 17.3518 24.086C18.2632 24.2469 19.1344 24.3273 19.9654 24.3273C20.9573 24.3273 21.6677 24.1933 22.0966 23.9252C22.5255 23.6303 22.74 23.255 22.74 22.7993C22.74 22.3972 22.5925 22.0889 22.2976 21.8745C22.0296 21.66 21.6409 21.5126 21.1315 21.4321L16.6682 20.7084C15.0062 20.4135 13.7194 19.8103 12.808 18.8989C11.8965 17.9606 11.4408 16.7409 11.4408 15.2397C11.4408 13.8458 11.8295 12.6529 12.6069 11.661C13.4111 10.6424 14.4968 9.86495 15.864 9.32881C17.2579 8.76587 18.8529 8.48439 20.649 8.48439C21.8553 8.48439 22.9544 8.57822 23.9463 8.76587C24.9381 8.92671 25.9032 9.23499 26.8414 9.69071C27.4312 9.93197 27.8467 10.2805 28.0879 10.7362C28.3292 11.1919 28.423 11.6744 28.3694 12.1838C28.3158 12.6663 28.1416 13.122 27.8467 13.5509C27.5786 13.953 27.2033 14.2345 26.7208 14.3953C26.2383 14.5294 25.6753 14.4891 25.0319 14.2747C24.1473 13.9262 23.3565 13.6715 22.6595 13.5107C21.9894 13.3499 21.3594 13.2694 20.7696 13.2694C19.6706 13.2694 18.8932 13.4169 18.4374 13.7117C17.9817 14.0066 17.7539 14.3819 17.7539 14.8376C17.7539 15.1861 17.8745 15.481 18.1158 15.7223C18.357 15.9367 18.7323 16.0842 19.2417 16.1646L23.705 16.9286C25.4207 17.1967 26.7342 17.7864 27.6456 18.6978C28.5839 19.5825 29.053 20.7888 29.053 22.3168C29.053 24.4881 28.222 26.177 26.5599 27.3833C24.8979 28.5628 22.6863 29.1525 19.9252 29.1525ZM39.5115 29.1525C36.938 29.1525 35.0347 28.469 33.8016 27.1018C32.5953 25.7079 31.9921 23.6169 31.9921 20.829V3.61893C31.9921 2.43943 32.3004 1.5414 32.9169 0.924837C33.5335 0.30828 34.4047 0 35.5306 0C36.6833 0 37.5679 0.30828 38.1845 0.924837C38.8279 1.5414 39.1496 2.43943 39.1496 3.61893V20.5877C39.1496 21.5796 39.3372 22.3034 39.7125 22.7591C40.1146 23.2148 40.6239 23.4427 41.2405 23.4427C41.4282 23.4427 41.6158 23.4293 41.8034 23.4025C42.0179 23.3488 42.2458 23.3086 42.487 23.2818C42.9427 23.2818 43.2778 23.4561 43.4923 23.8046C43.7335 24.1531 43.8542 24.8634 43.8542 25.9357C43.8542 26.874 43.6665 27.5843 43.2912 28.0669C42.9159 28.5226 42.3396 28.8175 41.5622 28.9515C41.3477 28.9783 41.0394 29.0185 40.6373 29.0721C40.2352 29.1257 39.8599 29.1525 39.5115 29.1525ZM52.8475 29.1525C51.3195 29.1525 49.9657 28.8711 48.7862 28.3081C47.6335 27.7452 46.7221 26.9812 46.0519 26.0161C45.4085 25.0243 45.0868 23.8984 45.0868 22.6385C45.0868 21.1909 45.4621 20.0516 46.2127 19.2206C46.9633 18.3896 48.1696 17.7998 49.8317 17.4513C51.4937 17.076 53.7053 16.8884 56.4664 16.8884H58.678V20.266H56.4664C55.4209 20.266 54.5497 20.3465 53.8527 20.5073C53.1825 20.6413 52.6866 20.8692 52.3649 21.1909C52.0433 21.4858 51.8824 21.8745 51.8824 22.357C51.8824 22.9735 52.0969 23.4829 52.5258 23.885C52.9815 24.2871 53.6249 24.4881 54.4559 24.4881C55.126 24.4881 55.7158 24.3407 56.2251 24.0458C56.7613 23.7509 57.1902 23.3488 57.5119 22.8395C57.8335 22.3034 57.9944 21.6868 57.9944 20.9898V16.3254C57.9944 15.3604 57.7397 14.6768 57.2304 14.2747C56.7479 13.8726 55.9035 13.6715 54.6971 13.6715C54.0538 13.6715 53.33 13.752 52.5258 13.9128C51.7216 14.0468 50.8235 14.3015 49.8317 14.6768C49.1079 14.9449 48.4913 14.9851 47.982 14.7974C47.4727 14.6098 47.0706 14.2881 46.7757 13.8324C46.5076 13.3767 46.3736 12.8807 46.3736 12.3446C46.4004 11.8085 46.5746 11.2991 46.8963 10.8166C47.2448 10.3341 47.7675 9.95878 48.4645 9.69071C49.7513 9.20818 50.9308 8.8865 52.003 8.72566C53.1021 8.56482 54.1074 8.48439 55.0188 8.48439C57.217 8.48439 59.0265 8.80608 60.4472 9.44944C61.8948 10.066 62.9671 11.0311 63.6641 12.3446C64.3878 13.6313 64.7497 15.2934 64.7497 17.3307V25.4532C64.7497 26.6327 64.4683 27.5307 63.9053 28.1473C63.3424 28.7638 62.5248 29.0721 61.4525 29.0721C60.3534 29.0721 59.509 28.7638 58.9192 28.1473C58.3563 27.5307 58.0748 26.6327 58.0748 25.4532V24.4077L58.3161 24.9707C58.182 25.8285 57.8738 26.5657 57.3912 27.1822C56.9087 27.7988 56.2787 28.2813 55.5013 28.6298C54.7239 28.9783 53.8393 29.1525 52.8475 29.1525ZM72.364 29.0721C71.2381 29.0721 70.3669 28.7638 69.7503 28.1473C69.1338 27.5307 68.8255 26.6327 68.8255 25.4532V12.1435C68.8255 10.9908 69.1204 10.1062 69.7101 9.48965C70.3267 8.87309 71.1979 8.56482 72.3238 8.56482C73.4497 8.56482 74.3075 8.87309 74.8972 9.48965C75.487 10.1062 75.7819 10.9908 75.7819 12.1435V14.0334L75.3396 12.3848C75.9829 11.1249 76.8944 10.1598 78.0739 9.48965C79.2802 8.81948 80.6473 8.48439 82.1753 8.48439C83.7569 8.48439 85.0571 8.79267 86.0757 9.40923C87.0944 9.99899 87.8584 10.9372 88.3677 12.224C88.8771 13.4839 89.1317 15.0789 89.1317 17.009V25.4532C89.1317 26.6327 88.8234 27.5307 88.2069 28.1473C87.5903 28.7638 86.7057 29.0721 85.553 29.0721C84.4003 29.0721 83.5157 28.7638 82.8991 28.1473C82.2826 27.5307 81.9743 26.6327 81.9743 25.4532V17.2905C81.9743 16.0842 81.7598 15.2263 81.3309 14.717C80.9288 14.2077 80.3257 13.953 79.5214 13.953C78.4492 13.953 77.5913 14.3015 76.948 14.9985C76.3046 15.6687 75.9829 16.5801 75.9829 17.7328V25.4532C75.9829 27.8658 74.7766 29.0721 72.364 29.0721ZM100.932 29.1525C99.2428 29.1525 97.7416 28.737 96.428 27.906C95.1413 27.075 94.1227 25.8821 93.3721 24.3273C92.6483 22.7725 92.2864 20.9362 92.2864 18.8185C92.2864 16.6471 92.6483 14.7974 93.3721 13.2694C94.1227 11.7414 95.1413 10.5619 96.428 9.73092C97.7416 8.8999 99.2428 8.48439 100.932 8.48439C102.406 8.48439 103.733 8.83288 104.912 9.52987C106.092 10.2268 106.883 11.1249 107.285 12.224H106.843V3.61893C106.843 2.43943 107.151 1.5414 107.767 0.924837C108.384 0.30828 109.269 0 110.421 0C111.547 0 112.418 0.30828 113.035 0.924837C113.678 1.5414 114 2.43943 114 3.61893V25.4532C114 26.6327 113.692 27.5307 113.075 28.1473C112.485 28.7638 111.614 29.0721 110.461 29.0721C109.336 29.0721 108.464 28.7638 107.848 28.1473C107.231 27.5307 106.923 26.6327 106.923 25.4532V23.1612L107.365 25.1315C106.99 26.3378 106.199 27.3163 104.993 28.0669C103.813 28.7907 102.46 29.1525 100.932 29.1525ZM103.224 23.885C103.947 23.885 104.591 23.7107 105.154 23.3622C105.717 22.9869 106.146 22.4374 106.44 21.7136C106.762 20.963 106.923 19.998 106.923 18.8185C106.923 17.0224 106.574 15.7357 105.877 14.9583C105.181 14.1541 104.296 13.752 103.224 13.752C102.5 13.752 101.856 13.9262 101.294 14.2747C100.731 14.6232 100.288 15.1727 99.9666 15.9233C99.6449 16.6471 99.484 17.6122 99.484 18.8185C99.484 20.5877 99.8325 21.8745 100.53 22.6787C101.226 23.4829 102.125 23.885 103.224 23.885Z" fill="#13BFD7"/>
</svg>
