<svg width="212" height="69" viewBox="0 0 212 69" fill="none" xmlns="http://www.w3.org/2000/svg">
<path d="M86.02 49.405C84.7 49.405 83.68 49.045 82.96 48.325C82.24 47.575 81.88 46.525 81.88 45.175V21.1C81.88 19.72 82.24 18.67 82.96 17.95C83.68 17.23 84.7 16.87 86.02 16.87C87.37 16.87 88.39 17.23 89.08 17.95C89.8 18.67 90.16 19.72 90.16 21.1V45.175C90.16 46.525 89.815 47.575 89.125 48.325C88.435 49.045 87.4 49.405 86.02 49.405ZM104.179 49.495C102.859 49.495 101.509 49.39 100.129 49.18C98.7786 49 97.5486 48.655 96.4386 48.145C95.6886 47.845 95.1486 47.44 94.8186 46.93C94.5186 46.42 94.3686 45.88 94.3686 45.31C94.3986 44.74 94.5636 44.23 94.8636 43.78C95.1936 43.3 95.6136 42.97 96.1236 42.79C96.6636 42.58 97.2636 42.595 97.9236 42.835C99.1836 43.285 100.309 43.615 101.299 43.825C102.319 44.005 103.294 44.095 104.224 44.095C105.334 44.095 106.129 43.945 106.609 43.645C107.089 43.315 107.329 42.895 107.329 42.385C107.329 41.935 107.164 41.59 106.834 41.35C106.534 41.11 106.099 40.945 105.529 40.855L100.534 40.045C98.6736 39.715 97.2336 39.04 96.2136 38.02C95.1936 36.97 94.6836 35.605 94.6836 33.925C94.6836 32.365 95.1186 31.03 95.9886 29.92C96.8886 28.78 98.1036 27.91 99.6336 27.31C101.194 26.68 102.979 26.365 104.989 26.365C106.339 26.365 107.569 26.47 108.679 26.68C109.789 26.86 110.869 27.205 111.919 27.715C112.579 27.985 113.044 28.375 113.314 28.885C113.584 29.395 113.689 29.935 113.629 30.505C113.569 31.045 113.374 31.555 113.044 32.035C112.744 32.485 112.324 32.8 111.784 32.98C111.244 33.13 110.614 33.085 109.894 32.845C108.904 32.455 108.019 32.17 107.239 31.99C106.489 31.81 105.784 31.72 105.124 31.72C103.894 31.72 103.024 31.885 102.514 32.215C102.004 32.545 101.749 32.965 101.749 33.475C101.749 33.865 101.884 34.195 102.154 34.465C102.424 34.705 102.844 34.87 103.414 34.96L108.409 35.815C110.329 36.115 111.799 36.775 112.819 37.795C113.869 38.785 114.394 40.135 114.394 41.845C114.394 44.275 113.464 46.165 111.604 47.515C109.744 48.835 107.269 49.495 104.179 49.495ZM126.098 49.495C123.218 49.495 121.088 48.73 119.708 47.2C118.358 45.64 117.683 43.3 117.683 40.18V20.92C117.683 19.6 118.028 18.595 118.718 17.905C119.408 17.215 120.383 16.87 121.643 16.87C122.933 16.87 123.923 17.215 124.613 17.905C125.333 18.595 125.693 19.6 125.693 20.92V39.91C125.693 41.02 125.903 41.83 126.323 42.34C126.773 42.85 127.343 43.105 128.033 43.105C128.243 43.105 128.453 43.09 128.663 43.06C128.903 43 129.158 42.955 129.428 42.925C129.938 42.925 130.313 43.12 130.553 43.51C130.823 43.9 130.958 44.695 130.958 45.895C130.958 46.945 130.748 47.74 130.328 48.28C129.908 48.79 129.263 49.12 128.393 49.27C128.153 49.3 127.808 49.345 127.358 49.405C126.908 49.465 126.488 49.495 126.098 49.495ZM141.022 49.495C139.312 49.495 137.797 49.18 136.477 48.55C135.187 47.92 134.167 47.065 133.417 45.985C132.697 44.875 132.337 43.615 132.337 42.205C132.337 40.585 132.757 39.31 133.597 38.38C134.437 37.45 135.787 36.79 137.647 36.4C139.507 35.98 141.982 35.77 145.072 35.77H147.547V39.55H145.072C143.902 39.55 142.927 39.64 142.147 39.82C141.397 39.97 140.842 40.225 140.482 40.585C140.122 40.915 139.942 41.35 139.942 41.89C139.942 42.58 140.182 43.15 140.662 43.6C141.172 44.05 141.892 44.275 142.822 44.275C143.572 44.275 144.232 44.11 144.802 43.78C145.402 43.45 145.882 43 146.242 42.43C146.602 41.83 146.782 41.14 146.782 40.36V35.14C146.782 34.06 146.497 33.295 145.927 32.845C145.387 32.395 144.442 32.17 143.092 32.17C142.372 32.17 141.562 32.26 140.662 32.44C139.762 32.59 138.757 32.875 137.647 33.295C136.837 33.595 136.147 33.64 135.577 33.43C135.007 33.22 134.557 32.86 134.227 32.35C133.927 31.84 133.777 31.285 133.777 30.685C133.807 30.085 134.002 29.515 134.362 28.975C134.752 28.435 135.337 28.015 136.117 27.715C137.557 27.175 138.877 26.815 140.077 26.635C141.307 26.455 142.432 26.365 143.452 26.365C145.912 26.365 147.937 26.725 149.527 27.445C151.147 28.135 152.347 29.215 153.127 30.685C153.937 32.125 154.342 33.985 154.342 36.265V45.355C154.342 46.675 154.027 47.68 153.397 48.37C152.767 49.06 151.852 49.405 150.652 49.405C149.422 49.405 148.477 49.06 147.817 48.37C147.187 47.68 146.872 46.675 146.872 45.355V44.185L147.142 44.815C146.992 45.775 146.647 46.6 146.107 47.29C145.567 47.98 144.862 48.52 143.992 48.91C143.122 49.3 142.132 49.495 141.022 49.495ZM162.863 49.405C161.603 49.405 160.628 49.06 159.938 48.37C159.248 47.68 158.903 46.675 158.903 45.355V30.46C158.903 29.17 159.233 28.18 159.893 27.49C160.583 26.8 161.558 26.455 162.818 26.455C164.078 26.455 165.038 26.8 165.698 27.49C166.358 28.18 166.688 29.17 166.688 30.46V32.575L166.193 30.73C166.913 29.32 167.933 28.24 169.253 27.49C170.603 26.74 172.133 26.365 173.843 26.365C175.613 26.365 177.068 26.71 178.208 27.4C179.348 28.06 180.203 29.11 180.773 30.55C181.343 31.96 181.628 33.745 181.628 35.905V45.355C181.628 46.675 181.283 47.68 180.593 48.37C179.903 49.06 178.913 49.405 177.623 49.405C176.333 49.405 175.343 49.06 174.653 48.37C173.963 47.68 173.618 46.675 173.618 45.355V36.22C173.618 34.87 173.378 33.91 172.898 33.34C172.448 32.77 171.773 32.485 170.873 32.485C169.673 32.485 168.713 32.875 167.993 33.655C167.273 34.405 166.913 35.425 166.913 36.715V45.355C166.913 48.055 165.563 49.405 162.863 49.405ZM194.834 49.495C192.944 49.495 191.264 49.03 189.794 48.1C188.354 47.17 187.214 45.835 186.374 44.095C185.564 42.355 185.159 40.3 185.159 37.93C185.159 35.5 185.564 33.43 186.374 31.72C187.214 30.01 188.354 28.69 189.794 27.76C191.264 26.83 192.944 26.365 194.834 26.365C196.484 26.365 197.969 26.755 199.289 27.535C200.609 28.315 201.494 29.32 201.944 30.55H201.449V20.92C201.449 19.6 201.794 18.595 202.484 17.905C203.174 17.215 204.164 16.87 205.454 16.87C206.714 16.87 207.689 17.215 208.379 17.905C209.099 18.595 209.459 19.6 209.459 20.92V45.355C209.459 46.675 209.114 47.68 208.424 48.37C207.764 49.06 206.789 49.405 205.499 49.405C204.239 49.405 203.264 49.06 202.574 48.37C201.884 47.68 201.539 46.675 201.539 45.355V42.79L202.034 44.995C201.614 46.345 200.729 47.44 199.379 48.28C198.059 49.09 196.544 49.495 194.834 49.495ZM197.399 43.6C198.209 43.6 198.929 43.405 199.559 43.015C200.189 42.595 200.669 41.98 200.999 41.17C201.359 40.33 201.539 39.25 201.539 37.93C201.539 35.92 201.149 34.48 200.369 33.61C199.589 32.71 198.599 32.26 197.399 32.26C196.589 32.26 195.869 32.455 195.239 32.845C194.609 33.235 194.114 33.85 193.754 34.69C193.394 35.5 193.214 36.58 193.214 37.93C193.214 39.91 193.604 41.35 194.384 42.25C195.164 43.15 196.169 43.6 197.399 43.6Z" fill="#13BFD7"/>
<g clip-path="url(#clip0_43_59)">
<path d="M0 28.1277C4.59873 27.2798 6.43413 29.2168 8.67392 32.1777C8.90419 32.4822 9.14459 32.7999 9.39927 33.1291C13.6638 38.6409 19.7662 39.6386 26.0735 37.2374C30.2722 44.853 39.7831 45.2181 44.0825 37.6324C53.0762 40.303 58.5577 38.8621 62.9623 28.8775C63.9126 26.723 66.753 28.1552 69 30.0058V27.3419V7.13793C69 3.19577 65.8041 0 61.8621 0H7.13793C3.19576 0 0 3.19576 0 7.13793V28.1277Z" fill="#13BFD7"/>
<path d="M30.798 39.1241C28.1545 37.2735 29.6091 35.694 31.46 36.877C32.7817 37.7217 35.0631 38.6865 37.3994 37.7217C39.1249 37.0091 40.3737 35.8973 41.012 36.6056C41.4247 37.0636 40.7126 37.9344 40.3112 38.2431C36.7003 41.0192 32.1154 40.0464 30.798 39.1241Z" fill="#0A8BA4"/>
<path d="M24.7179 3.30225C25.6459 2.73236 27.0088 2.74658 27.508 3.78668C27.8555 4.51068 27.2294 5.02063 27.0699 5.17066C26.3619 5.83663 24.8558 5.44857 24.417 4.47536C24.1094 3.79311 24.5355 3.41428 24.7179 3.30225Z" fill="#49E2EA"/>
<path d="M48.3682 9.99243C50.9616 9.69211 53.9053 10.5767 56.0452 12.0577C63.7109 17.3625 63.4906 31.6021 54.8104 35.8082C53.4504 36.4673 52.2559 36.6571 50.7793 36.8834C50.3906 36.9029 50.0018 36.9029 49.6135 36.8834C47.2025 36.6334 45.4714 36.3482 44.2818 35.8195C44.2818 35.8195 43.9424 31.6757 39.4187 32.1554C36.0213 25.4714 35.6779 17.1927 42.3926 12.1642C44.1512 10.8471 46.2122 10.3028 48.3682 9.99243Z" fill="#F8FAFA"/>
<path d="M43.8895 17.6969C51.2418 16.6339 52.6409 29.0199 46.0298 30.5682C40.601 31.8396 38.8908 25.4519 40.4456 20.9127C41.029 19.2091 42.1644 17.9464 43.8895 17.6969Z" fill="#0F4A5C"/>
<path d="M20.1898 9.80265C28.3118 9.19221 33.7189 17.2591 32.9327 24.653C32.6009 27.772 32.1456 29.3196 30.8161 32.092C27.7785 31.8636 26.8385 32.6768 25.8196 35.4513C24.3232 36.0308 23.3493 36.3198 21.779 36.5926C5.25173 37.9142 3.45035 11.7175 20.1898 9.80265Z" fill="#F8FAFA"/>
<path d="M24.9995 17.7064C31.8564 17.2513 32.2994 29.814 25.6413 30.8183C18.4106 31.909 17.623 18.196 24.9995 17.7064Z" fill="#0F4A5C"/>
<path d="M26.1005 20.1825C26.4971 19.9924 26.9655 20.0329 27.3237 20.288C27.6817 20.5434 27.8728 20.973 27.8224 21.4097C27.7719 21.8465 27.4882 22.2213 27.0813 22.3884C26.4767 22.6364 25.7843 22.3588 25.5189 21.7619C25.2535 21.1649 25.5112 20.4649 26.1005 20.1825Z" fill="#F8FAFA"/>
<path d="M43.6011 19.9931C44.2703 19.921 44.8728 20.4013 44.9515 21.0699C45.0303 21.7382 44.5561 22.3452 43.8883 22.4306C43.4502 22.4867 43.0161 22.3032 42.751 21.9503C42.4858 21.5973 42.4305 21.1294 42.6066 20.7244C42.7824 20.3196 43.1621 20.0404 43.6011 19.9931Z" fill="#F8FAFA"/>
<path d="M18.4302 6.13286C17.7813 6.01698 16.3721 6.06505 15.7299 6.21256C14.1737 6.57017 11.0708 7.94946 12.4784 9.32142C13.0862 9.91372 14.4976 9.01568 15.7299 8.45968C17.5687 7.63006 19.807 8.59187 20.3563 7.66661C20.9056 6.74129 19.6164 6.34476 18.4302 6.13286Z" fill="#0A8BA4"/>
<path d="M49.5606 5.03596C51.5492 4.64256 56.936 5.65744 56.7195 8.10713C56.6562 8.82478 56.2194 9.08626 55.5037 8.96554C54.8565 8.85638 54.5919 8.10713 52.9278 7.47452C51.5407 6.94731 51.1552 7.27014 49.5692 7.0058C48.6198 6.84757 48.4914 6.42858 48.5646 5.81614C48.6436 5.15522 49.3684 5.07403 49.5606 5.03596Z" fill="#0A8BA4"/>
<path d="M62.9623 28.8777C63.8826 26.7905 66.5774 28.0692 68.7878 29.8336L69 30.006V61.8621C69 65.8042 65.8041 69 61.8621 69H7.13793C3.19581 69 8.32392e-05 65.8042 0 61.8621V28.1277C4.59861 27.2798 6.43404 29.2167 8.67378 32.1776C8.90405 32.482 9.14455 32.8002 9.39923 33.1293C13.6637 38.6411 19.7662 39.6386 26.0734 37.2373C30.2721 44.853 39.7829 45.2181 44.0823 37.6324C53.0762 40.303 58.5577 38.8622 62.9623 28.8777Z" fill="#49E2EA"/>
</g>
<defs>
<clipPath id="clip0_43_59">
<rect width="69" height="69" fill="white"/>
</clipPath>
</defs>
</svg>
